<svg xmlns="http://www.w3.org/2000/svg" xmlns:xlink="http://www.w3.org/1999/xlink" version="1.2" width="142.00mm" height="100.00mm" viewBox="0 0 80.8058 56.9055">
<style type="text/css">
<![CDATA[
tspan { white-space: pre; }
]]>
</style>
<!-- Page: 3/4 -->
<g transform="translate(79.1442, 1.5023)">
<text font-family="serif" font-size="2.2001" text-anchor="start" fill="currentColor">
<tspan>3</tspan>
</text>
</g>
<g transform="translate(0.5691, 9.5364)">
<line stroke-linejoin="round" stroke-linecap="round" stroke-width="0.1000" stroke="currentColor" x1="0.0500" y1="0" x2="79.6177" y2="0"/>
</g>
<g transform="translate(0.5691, 8.5364)">
<line stroke-linejoin="round" stroke-linecap="round" stroke-width="0.1000" stroke="currentColor" x1="0.0500" y1="0" x2="79.6177" y2="0"/>
</g>
<g transform="translate(0.5691, 7.5364)">
<line stroke-linejoin="round" stroke-linecap="round" stroke-width="0.1000" stroke="currentColor" x1="0.0500" y1="0" x2="79.6177" y2="0"/>
</g>
<g transform="translate(0.5691, 6.5364)">
<line stroke-linejoin="round" stroke-linecap="round" stroke-width="0.1000" stroke="currentColor" x1="0.0500" y1="0" x2="79.6177" y2="0"/>
</g>
<g transform="translate(0.5691, 5.5364)">
<line stroke-linejoin="round" stroke-linecap="round" stroke-width="0.1000" stroke="currentColor" x1="0.0500" y1="0" x2="79.6177" y2="0"/>
</g>
<g transform="translate(76.0653, 2.5364)">
<rect x="0.0000" y="7.0500" width="0.1900" height="6.7185" ry="0.0000" fill="currentColor"/>
</g>
<g transform="translate(51.2448, 7.5364)">
<rect x="0.0000" y="-2.0000" width="0.1900" height="4.0500" ry="0.0000" fill="currentColor"/>
</g>
<g transform="translate(76.0653, 17.3049)">
<rect x="0.0000" y="-1.1000" width="0.1900" height="2.1500" ry="0.0000" fill="currentColor"/>
</g>
<g transform="translate(51.2448, 17.3049)">
<rect x="0.0000" y="-1.1000" width="0.1900" height="2.1500" ry="0.0000" fill="currentColor"/>
</g>
<g transform="translate(51.2448, 2.5364)">
<rect x="0.0000" y="7.0500" width="0.1900" height="6.7185" ry="0.0000" fill="currentColor"/>
</g>
<g transform="translate(76.0653, 7.5364)">
<rect x="0.0000" y="-2.0000" width="0.1900" height="4.0500" ry="0.0000" fill="currentColor"/>
</g>
<g transform="translate(0.5691, 17.3049)">
<line stroke-linejoin="round" stroke-linecap="round" stroke-width="0.1000" stroke="currentColor" x1="0.0500" y1="0" x2="79.6177" y2="0"/>
</g>
<g transform="translate(0.5691, 10.5364)">
<rect x="48.3956" y="-0.1000" width="1.5487" height="0.2000" ry="0.1000" fill="currentColor"/>
</g>
<g transform="translate(0.5691, 4.5364)">
<rect x="45.8879" y="-0.1000" width="1.5487" height="0.2000" ry="0.1000" fill="currentColor"/>
</g>
<g transform="translate(0.5691, 10.5364)">
<rect x="25.7879" y="-0.1000" width="1.4724" height="0.2000" ry="0.1000" fill="currentColor"/>
</g>
<g transform="translate(0.5691, 10.5364)">
<rect x="20.6764" y="-0.1000" width="1.4656" height="0.2000" ry="0.1000" fill="currentColor"/>
</g>
<g transform="translate(6.4338, 17.3049)">
<rect x="-0.0650" y="0.1861" width="0.1300" height="3.1889" ry="0.0400" fill="currentColor"/>
</g>
<g transform="translate(41.6478, 21.3899)">
<path transform="scale(0.0040, -0.0040)" d="M0 205c89 50 206 128 206 228c0 22 -3 44 -8 66c-77 -88 -198 -157 -198 -279v-15zM267 864c0 -38 -12 -70 -30 -100c16 -38 24 -79 24 -120c0 -38 -12 -70 -30 -100c11 -36 17 -73 17 -111c0 -178 -248 -255 -248 -433h-16v750h16v-105c97 44 224 117 224 219
c0 18 -9 35 -9 53c0 14 11 22 23 22c27 0 29 -51 29 -75zM0 425c95 45 219 118 219 219c0 27 -5 54 -14 79c-79 -90 -205 -158 -205 -283v-15z" fill="currentColor"/>
</g>
<g transform="translate(49.7056, 17.3049)">
<rect x="-0.0650" y="0.1861" width="0.1300" height="3.9389" ry="0.0400" fill="currentColor"/>
</g>
<a style="color:inherit;" xlink:href="textedit://C:/Users/jwloy/Documents/GitHub/sf005/public/pieces/sf005/notation/InteractiveLoopingLine001.ly:294:70:71">
<g transform="translate(49.6406, 17.3049)">
<path transform="scale(0.0040, -0.0040)" d="M218 136c55 0 108 -28 108 -89c0 -71 -55 -121 -102 -149c-35 -21 -75 -34 -116 -34c-55 0 -108 28 -108 89c0 71 55 121 102 149c35 21 75 34 116 34z" fill="currentColor"/>
</g>
</a>
<g transform="translate(49.2878, 7.5364)">
<rect x="-0.0650" y="3.1360" width="0.1300" height="3.3270" ry="0.0400" fill="currentColor"/>
</g>
<a style="color:inherit;" xlink:href="textedit://C:/Users/jwloy/Documents/GitHub/sf005/public/pieces/sf005/notation/InteractiveLoopingLine001.ly:96:79:80">
<g transform="translate(49.2228, 10.5364)">
<path transform="scale(0.0032, -0.0032)" d="M212 138c59 0 113 -31 113 -95c0 -71 -52 -120 -99 -148c-34 -21 -73 -33 -113 -33c-59 0 -113 31 -113 95c0 71 53 120 100 148c34 21 72 33 112 33z" fill="currentColor"/>
</g>
</a>
<a style="color:inherit;" xlink:href="textedit://C:/Users/jwloy/Documents/GitHub/sf005/public/pieces/sf005/notation/InteractiveLoopingLine001.ly:99:8:9">
<g transform="translate(55.7896, 9.0364)">
<path transform="scale(0.0032, -0.0032)" d="M212 138c59 0 113 -31 113 -95c0 -71 -52 -120 -99 -148c-34 -21 -73 -33 -113 -33c-59 0 -113 31 -113 95c0 71 53 120 100 148c34 21 72 33 112 33z" fill="currentColor"/>
</g>
</a>
<g transform="translate(49.7706, 21.3899)">
<path transform="scale(0.0040, -0.0040)" d="M0 205c89 50 206 128 206 228c0 22 -3 44 -8 66c-77 -88 -198 -157 -198 -279v-15zM267 864c0 -38 -12 -70 -30 -100c16 -38 24 -79 24 -120c0 -38 -12 -70 -30 -100c11 -36 17 -73 17 -111c0 -178 -248 -255 -248 -433h-16v750h16v-105c97 44 224 117 224 219
c0 18 -9 35 -9 53c0 14 11 22 23 22c27 0 29 -51 29 -75zM0 425c95 45 219 118 219 219c0 27 -5 54 -14 79c-79 -90 -205 -158 -205 -283v-15z" fill="currentColor"/>
</g>
<a style="color:inherit;" xlink:href="textedit://C:/Users/jwloy/Documents/GitHub/sf005/public/pieces/sf005/notation/InteractiveLoopingLine001.ly:96:69:70">
<g transform="translate(45.0437, 7.5364)">
<path transform="scale(0.0040, -0.0040)" d="M66 -500l101 327c-34 -12 -70 -23 -106 -23c-46 0 -87 33 -87 79c0 40 32 72 72 72c25 0 49 -15 57 -39c10 -28 5 -59 34 -59c16 0 55 51 60 68l46 151c-34 -12 -68 -22 -104 -22c-46 0 -87 33 -87 79c0 40 33 72 73 72c25 0 48 -15 56 -39c10 -28 5 -59 34 -59
c15 0 50 49 57 63c6 12 23 12 28 0l-179 -670c-8 -7 -17 -10 -27 -10s-20 3 -28 10z" fill="currentColor"/>
</g>
</a>
<a style="color:inherit;" xlink:href="textedit://C:/Users/jwloy/Documents/GitHub/sf005/public/pieces/sf005/notation/InteractiveLoopingLine001.ly:294:59:60">
<g transform="translate(43.1220, 17.3049)">
<path transform="scale(0.0040, -0.0040)" d="M218 136c55 0 108 -28 108 -89c0 -71 -55 -121 -102 -149c-35 -21 -75 -34 -116 -34c-55 0 -108 28 -108 89c0 71 55 121 102 149c35 21 75 34 116 34z" fill="currentColor"/>
</g>
</a>
<g transform="translate(43.6049, 7.5364)">
<rect x="-0.0650" y="-1.3640" width="0.1300" height="4.8489" ry="0.0400" fill="currentColor"/>
</g>
<a style="color:inherit;" xlink:href="textedit://C:/Users/jwloy/Documents/GitHub/sf005/public/pieces/sf005/notation/InteractiveLoopingLine001.ly:96:65:66">
<g transform="translate(43.5399, 6.0364)">
<path transform="scale(0.0032, -0.0032)" d="M212 138c59 0 113 -31 113 -95c0 -71 -52 -120 -99 -148c-34 -21 -73 -33 -113 -33c-59 0 -113 31 -113 95c0 71 53 120 100 148c34 21 72 33 112 33z" fill="currentColor"/>
</g>
</a>
<g transform="translate(43.2520, 20.6399)">
<path transform="scale(0.0040, -0.0040)" d="M0 205c91 51 211 131 211 233c0 24 -5 48 -14 70c-79 -89 -197 -160 -197 -282v-21zM267 663c0 -44 -16 -82 -39 -116c16 -35 25 -71 25 -109c0 -181 -253 -257 -253 -438h-16v500h16v-70c97 49 224 128 224 233c0 21 -5 42 -13 62c-3 16 10 27 23 27c30 0 33 -63 33 -89
z" fill="currentColor"/>
</g>
<g transform="translate(43.1870, 17.3049)">
<rect x="-0.0650" y="0.1861" width="0.1300" height="3.1889" ry="0.0400" fill="currentColor"/>
</g>
<a style="color:inherit;" xlink:href="textedit://C:/Users/jwloy/Documents/GitHub/sf005/public/pieces/sf005/notation/InteractiveLoopingLine001.ly:294:54:55">
<g transform="translate(41.5178, 17.3049)">
<path transform="scale(0.0040, -0.0040)" d="M218 136c55 0 108 -28 108 -89c0 -71 -55 -121 -102 -149c-35 -21 -75 -34 -116 -34c-55 0 -108 28 -108 89c0 71 55 121 102 149c35 21 75 34 116 34z" fill="currentColor"/>
</g>
</a>
<g transform="translate(14.8591, 3.0764)">
<path transform="scale(0.0040, -0.0040)" d="M0 0v-250h-16v250h16zM0 0c0 -197 207 -336 207 -533c0 -71 -15 -141 -41 -207c-5 -8 -13 -12 -20 -12c-13 0 -26 11 -23 27c26 61 42 126 42 192c0 103 -94 208 -165 283v250z" fill="currentColor"/>
</g>
<g transform="translate(41.5828, 17.3049)">
<rect x="-0.0650" y="0.1861" width="0.1300" height="3.9389" ry="0.0400" fill="currentColor"/>
</g>
<g transform="translate(41.5828, 7.5364)">
<rect x="-0.0650" y="-2.3640" width="0.1300" height="5.3791" ry="0.0400" fill="currentColor"/>
</g>
<a style="color:inherit;" xlink:href="textedit://C:/Users/jwloy/Documents/GitHub/sf005/public/pieces/sf005/notation/InteractiveLoopingLine001.ly:96:59:60">
<g transform="translate(41.5178, 5.0364)">
<path transform="scale(0.0032, -0.0032)" d="M212 138c59 0 113 -31 113 -95c0 -71 -52 -120 -99 -148c-34 -21 -73 -33 -113 -33c-59 0 -113 31 -113 95c0 71 53 120 100 148c34 21 72 33 112 33z" fill="currentColor"/>
</g>
</a>
<g transform="translate(35.8875, 8.5364)">
<path transform="scale(0.0025, -0.0025)" d="M-9 375c9 5 19 8 29 8s19 -3 28 -8l-3 -202l97 26c2 0 3 1 5 1c11 0 20 -9 20 -20l8 -555c-9 -5 -18 -8 -28 -8s-20 3 -29 8l3 202l-96 -26c-2 0 -3 -1 -5 -1c-11 0 -20 9 -20 20zM126 108l-82 -22l-3 -194l82 22z" fill="currentColor"/>
</g>
<g transform="translate(12.7837, 8.5364)">
<path transform="scale(0.0025, -0.0025)" d="M198 -327c-13 0 -24 11 -24 24v129l-73 -29v-148c0 -13 -11 -24 -24 -24s-23 11 -23 24v129l-10 -4c-4 -2 -8 -2 -12 -2c-17 0 -32 14 -32 32v46c0 13 8 24 20 29l34 14v148l-10 -4c-4 -2 -8 -3 -12 -3c-17 0 -32 14 -32 32v46c0 13 8 25 20 30l34 13v148
c0 13 10 24 23 24s24 -11 24 -24v-129l73 29v148c0 13 11 24 24 24s23 -11 23 -24v-129l10 4c4 2 8 2 12 2c17 0 32 -14 32 -32v-46c0 -13 -8 -24 -20 -29l-34 -14v-148l10 4c4 2 8 3 12 3c17 0 32 -14 32 -32v-46c0 -13 -8 -25 -20 -30l-34 -13v-148c0 -13 -10 -24 -23 -24
zM101 59v-148l73 30v148z" fill="currentColor"/>
</g>
<g transform="translate(13.8917, 17.3049)">
<rect x="-0.0650" y="0.1861" width="0.1300" height="3.1889" ry="0.0400" fill="currentColor"/>
</g>
<a style="color:inherit;" xlink:href="textedit://C:/Users/jwloy/Documents/GitHub/sf005/public/pieces/sf005/notation/InteractiveLoopingLine001.ly:96:46:47">
<g transform="translate(41.5178, 11.9488)">
<line stroke-linejoin="round" stroke-linecap="round" stroke-width="0.1600" stroke="currentColor" x1="8.0180" y1="3.5285" x2="8.0180" y2="2.8285"/>
</g>
<g transform="translate(41.5178, 11.9488)">
<line stroke-linejoin="round" stroke-linecap="round" stroke-width="0.1600" stroke="currentColor" x1="-0.1831" y1="-0.0806" x2="-0.1831" y2="-0.7806"/>
</g>
<g transform="translate(41.5178, 11.9488)">
<line stroke-linejoin="round" stroke-linecap="round" stroke-width="0.1600" stroke="currentColor" x1="8.0180" y1="3.5285" x2="4.8729" y2="2.1444"/>
</g>
<g transform="translate(41.5178, 11.9488)">
<line stroke-linejoin="round" stroke-linecap="round" stroke-width="0.1600" stroke="currentColor" x1="-0.1831" y1="-0.0806" x2="3.1451" y2="1.3841"/>
</g>
</a>
<g transform="translate(6.4988, 20.6399)">
<path transform="scale(0.0040, -0.0040)" d="M0 205c91 51 211 131 211 233c0 24 -5 48 -14 70c-79 -89 -197 -160 -197 -282v-21zM267 663c0 -44 -16 -82 -39 -116c16 -35 25 -71 25 -109c0 -181 -253 -257 -253 -438h-16v500h16v-70c97 49 224 128 224 233c0 21 -5 42 -13 62c-3 16 10 27 23 27c30 0 33 -63 33 -89
z" fill="currentColor"/>
</g>
<a style="color:inherit;" xlink:href="textedit://C:/Users/jwloy/Documents/GitHub/sf005/public/pieces/sf005/notation/InteractiveLoopingLine001.ly:96:15:16">
<g transform="translate(8.8442, 7.5364)">
<path transform="scale(0.0032, -0.0032)" d="M212 138c59 0 113 -31 113 -95c0 -71 -52 -120 -99 -148c-34 -21 -73 -33 -113 -33c-59 0 -113 31 -113 95c0 71 53 120 100 148c34 21 72 33 112 33z" fill="currentColor"/>
</g>
</a>
<a style="color:inherit;" xlink:href="textedit://C:/Users/jwloy/Documents/GitHub/sf005/public/pieces/sf005/notation/InteractiveLoopingLine001.ly:294:15:16">
<g transform="translate(8.8442, 17.3049)">
<path transform="scale(0.0040, -0.0040)" d="M218 136c55 0 108 -28 108 -89c0 -71 -55 -121 -102 -149c-35 -21 -75 -34 -116 -34c-55 0 -108 28 -108 89c0 71 55 121 102 149c35 21 75 34 116 34z" fill="currentColor"/>
</g>
</a>
<g transform="translate(8.9092, 7.5364)">
<rect x="-0.0650" y="0.1360" width="0.1300" height="5.2390" ry="0.0400" fill="currentColor"/>
</g>
<g transform="translate(8.9742, 12.8714)">
<path transform="scale(0.0040, -0.0040)" d="M0 0h-16v250h16v-250zM0 0v250c97 59 224 148 224 259c0 57 -15 112 -40 163c-3 16 10 27 23 27c7 0 15 -3 20 -11c25 -56 40 -117 40 -179c0 -203 -267 -306 -267 -509z" fill="currentColor"/>
</g>
<g transform="translate(8.9092, 17.3049)">
<rect x="-0.0650" y="0.1861" width="0.1300" height="3.1889" ry="0.0400" fill="currentColor"/>
</g>
<g transform="translate(8.9742, 20.6399)">
<path transform="scale(0.0040, -0.0040)" d="M0 0h-16v250h16v-250zM0 0v250c97 59 224 148 224 259c0 57 -15 112 -40 163c-3 16 10 27 23 27c7 0 15 -3 20 -11c25 -56 40 -117 40 -179c0 -203 -267 -306 -267 -509z" fill="currentColor"/>
</g>
<a style="color:inherit;" xlink:href="textedit://C:/Users/jwloy/Documents/GitHub/sf005/public/pieces/sf005/notation/InteractiveLoopingLine001.ly:96:19:20">
<g transform="translate(13.8267, 8.5364)">
<path transform="scale(0.0032, -0.0032)" d="M212 138c59 0 113 -31 113 -95c0 -71 -52 -120 -99 -148c-34 -21 -73 -33 -113 -33c-59 0 -113 31 -113 95c0 71 53 120 100 148c34 21 72 33 112 33z" fill="currentColor"/>
</g>
</a>
<a style="color:inherit;" xlink:href="textedit://C:/Users/jwloy/Documents/GitHub/sf005/public/pieces/sf005/notation/InteractiveLoopingLine001.ly:294:19:20">
<g transform="translate(13.8267, 17.3049)">
<path transform="scale(0.0040, -0.0040)" d="M218 136c55 0 108 -28 108 -89c0 -71 -55 -121 -102 -149c-35 -21 -75 -34 -116 -34c-55 0 -108 28 -108 89c0 71 55 121 102 149c35 21 75 34 116 34z" fill="currentColor"/>
</g>
</a>
<g transform="translate(14.7941, 7.5364)">
<rect x="-0.0650" y="-4.5000" width="0.1300" height="5.3640" ry="0.0400" fill="currentColor"/>
</g>
<g transform="translate(60.8370, 17.3049)">
<rect x="-0.0650" y="0.1861" width="0.1300" height="2.8139" ry="0.0400" fill="currentColor"/>
</g>
<g transform="translate(59.9181, 7.5364)">
<path transform="scale(0.0025, -0.0025)" d="M34 33l-1 -58v-10c0 -21 2 -43 5 -64c41 38 85 80 85 136c0 31 -13 63 -40 63c-31 0 -48 -33 -49 -67zM32 441l-8 -333c25 27 60 42 97 42c49 0 79 -52 79 -106c0 -76 -78 -117 -133 -169c-19 -18 -27 -52 -55 -52c-17 0 -30 17 -30 35l-14 583c10 6 21 9 32 9
s22 -3 32 -9z" fill="currentColor"/>
</g>
<a style="color:inherit;" xlink:href="textedit://C:/Users/jwloy/Documents/GitHub/sf005/public/pieces/sf005/notation/InteractiveLoopingLine001.ly:296:17:18">
<g transform="translate(65.8904, 17.3049)">
<path transform="scale(0.0040, -0.0040)" d="M218 136c55 0 108 -28 108 -89c0 -71 -55 -121 -102 -149c-35 -21 -75 -34 -116 -34c-55 0 -108 28 -108 89c0 71 55 121 102 149c35 21 75 34 116 34z" fill="currentColor"/>
</g>
</a>
<g transform="translate(60.8370, 7.5364)">
<rect x="-0.0650" y="0.1360" width="0.1300" height="5.1973" ry="0.0400" fill="currentColor"/>
</g>
<g transform="translate(62.2545, 7.0364)">
<path transform="scale(0.0040, -0.0040)" d="M0 0c0 31 25 56 56 56s56 -25 56 -56s-25 -56 -56 -56s-56 25 -56 56z" fill="currentColor"/>
</g>
<a style="color:inherit;" xlink:href="textedit://C:/Users/jwloy/Documents/GitHub/sf005/public/pieces/sf005/notation/InteractiveLoopingLine001.ly:296:14:15">
<g transform="translate(60.7720, 17.3049)">
<path transform="scale(0.0040, -0.0040)" d="M218 136c55 0 108 -28 108 -89c0 -71 -55 -121 -102 -149c-35 -21 -75 -34 -116 -34c-55 0 -108 28 -108 89c0 71 55 121 102 149c35 21 75 34 116 34z" fill="currentColor"/>
</g>
</a>
<a style="color:inherit;" xlink:href="textedit://C:/Users/jwloy/Documents/GitHub/sf005/public/pieces/sf005/notation/InteractiveLoopingLine001.ly:99:14:15">
<g transform="translate(60.7720, 7.5364)">
<path transform="scale(0.0032, -0.0032)" d="M212 138c59 0 113 -31 113 -95c0 -71 -52 -120 -99 -148c-34 -21 -73 -33 -113 -33c-59 0 -113 31 -113 95c0 71 53 120 100 148c34 21 72 33 112 33z" fill="currentColor"/>
</g>
</a>
<a style="color:inherit;" xlink:href="textedit://C:/Users/jwloy/Documents/GitHub/sf005/public/pieces/sf005/notation/InteractiveLoopingLine001.ly:96:46:47">
<g transform="translate(44.9914, 14.2702)">
<text font-family="serif" font-style="italic" font-size="1.7461" text-anchor="start" fill="currentColor">
<tspan>6</tspan>
</text>
</g>
</a>
<g transform="translate(41.5178, 9.7264)">
<polygon stroke-linejoin="round" stroke-linecap="round" stroke-width="0.0800" fill="currentColor" stroke="currentColor" points="2.1121 0.3000 2.1121 0.7000 0.0400 0.2000 0.0400 -0.2000"/>
</g>
<g transform="translate(41.5178, 10.5364)">
<polygon stroke-linejoin="round" stroke-linecap="round" stroke-width="0.0800" fill="currentColor" stroke="currentColor" points="2.1121 0.3000 2.1121 0.7000 0.0400 0.2000 0.0400 -0.2000"/>
</g>
<g transform="translate(46.7151, 11.7264)">
<polygon stroke-linejoin="round" stroke-linecap="round" stroke-width="0.0800" fill="currentColor" stroke="currentColor" points="2.5977 1.3000 2.5977 1.7000 0.0400 0.2000 0.0400 -0.2000"/>
</g>
<g transform="translate(46.7151, 12.5364)">
<polygon stroke-linejoin="round" stroke-linecap="round" stroke-width="0.0800" fill="currentColor" stroke="currentColor" points="2.5977 1.3000 2.5977 1.7000 0.0400 0.2000 0.0400 -0.2000"/>
</g>
<g transform="translate(55.7896, 20.3049)">
<polygon stroke-linejoin="round" stroke-linecap="round" stroke-width="0.0800" fill="currentColor" stroke="currentColor" points="5.0725 -0.2000 5.0725 0.2000 0.0400 0.2000 0.0400 -0.2000"/>
</g>
<g transform="translate(65.8904, 20.3049)">
<polygon stroke-linejoin="round" stroke-linecap="round" stroke-width="0.0800" fill="currentColor" stroke="currentColor" points="5.2083 -0.2000 5.2083 0.2000 0.0400 0.2000 0.0400 -0.2000"/>
</g>
<g transform="translate(71.0737, 17.3049)">
<rect x="-0.0650" y="0.1861" width="0.1300" height="2.8139" ry="0.0400" fill="currentColor"/>
</g>
<a style="color:inherit;" xlink:href="textedit://C:/Users/jwloy/Documents/GitHub/sf005/public/pieces/sf005/notation/InteractiveLoopingLine001.ly:296:20:21">
<g transform="translate(71.0087, 17.3049)">
<path transform="scale(0.0040, -0.0040)" d="M218 136c55 0 108 -28 108 -89c0 -71 -55 -121 -102 -149c-35 -21 -75 -34 -116 -34c-55 0 -108 28 -108 89c0 71 55 121 102 149c35 21 75 34 116 34z" fill="currentColor"/>
</g>
</a>
<g transform="translate(65.9554, 17.3049)">
<rect x="-0.0650" y="0.1861" width="0.1300" height="2.8139" ry="0.0400" fill="currentColor"/>
</g>
<g transform="translate(56.8220, 3.5764)">
<path transform="scale(0.0040, -0.0040)" d="M0 0v-250h-16v250h16zM0 0c0 -197 207 -336 207 -533c0 -71 -15 -141 -41 -207c-5 -8 -13 -12 -20 -12c-13 0 -26 11 -23 27c26 61 42 126 42 192c0 103 -94 208 -165 283v250z" fill="currentColor"/>
</g>
<g transform="translate(45.5915, 20.6399)">
<path transform="scale(0.0040, -0.0040)" d="M0 0h-16v250h16v-250zM0 0v250c97 59 224 148 224 259c0 57 -15 112 -40 163c-3 16 10 27 23 27c7 0 15 -3 20 -11c25 -56 40 -117 40 -179c0 -203 -267 -306 -267 -509z" fill="currentColor"/>
</g>
<g transform="translate(45.5265, 17.3049)">
<rect x="-0.0650" y="0.1861" width="0.1300" height="3.1889" ry="0.0400" fill="currentColor"/>
</g>
<g transform="translate(56.7570, 7.5364)">
<rect x="-0.0650" y="-4.0000" width="0.1300" height="5.3640" ry="0.0400" fill="currentColor"/>
</g>
<a style="color:inherit;" xlink:href="textedit://C:/Users/jwloy/Documents/GitHub/sf005/public/pieces/sf005/notation/InteractiveLoopingLine001.ly:295:8:9">
<g transform="translate(52.1848, 17.3049)">
<path transform="scale(0.0040, -0.0040)" d="M196 117h117c0 -48 27 -94 72 -94c8 0 12 -5 12 -11s-4 -12 -12 -12c-44 0 -87 13 -131 13s-87 -13 -131 -13c-8 0 -12 6 -12 12s4 11 12 11c45 0 73 46 73 94zM204 307c22 14 44 29 60 50c11 15 19 33 27 50c2 4 5 6 9 6c6 0 13 -5 13 -14v-245h72c10 0 15 -7 15 -14
s-5 -15 -15 -15h-72v-8h-117v8h-167c-23 0 -31 14 -31 23c0 3 1 5 2 6c80 93 138 207 138 330c0 10 7 19 16 16c23 -7 47 -13 71 -13s48 6 71 13c14 4 23 -9 17 -16l-284 -330h167v131c0 8 1 17 8 22z" fill="currentColor"/>
</g>
<g transform="translate(52.2531, 19.3194)">
<path transform="scale(0.0040, -0.0040)" d="M259 288c27 29 49 62 49 102c0 55 -57 87 -117 87c-47 0 -75 -36 -75 -71c0 -20 10 -40 30 -52zM289 271c55 -31 83 -79 83 -127c0 -73 -66 -144 -189 -144c-94 0 -183 54 -183 140c0 50 39 85 76 120c-41 28 -61 67 -61 106c0 68 61 134 176 134c81 0 161 -38 161 -110
c0 -47 -30 -85 -63 -119zM106 242c-33 -29 -62 -59 -62 -102c0 -69 66 -117 139 -117c54 0 86 42 86 83c0 24 -10 48 -35 62z" fill="currentColor"/>
</g>
</a>
<a style="color:inherit;" xlink:href="textedit://C:/Users/jwloy/Documents/GitHub/sf005/public/pieces/sf005/notation/InteractiveLoopingLine001.ly:296:11:12">
<g transform="translate(56.4417, 16.5599)">
<path transform="scale(0.0040, -0.0040)" d="M-112 0c-9 0 -16 10 -12 18l113 250c2 4 6 7 11 7s9 -3 11 -7l113 -250c4 -8 -3 -18 -12 -18h-66c-5 0 -10 3 -12 7l-68 150l-67 -150c-2 -4 -6 -7 -11 -7z" fill="currentColor"/>
</g>
</a>
<a style="color:inherit;" xlink:href="textedit://C:/Users/jwloy/Documents/GitHub/sf005/public/pieces/sf005/notation/InteractiveLoopingLine001.ly:294:67:68">
<g transform="translate(46.1137, 16.5599)">
<path transform="scale(0.0040, -0.0040)" d="M-112 0c-9 0 -16 10 -12 18l113 250c2 4 6 7 11 7s9 -3 11 -7l113 -250c4 -8 -3 -18 -12 -18h-66c-5 0 -10 3 -12 7l-68 150l-67 -150c-2 -4 -6 -7 -11 -7z" fill="currentColor"/>
</g>
</a>
<a style="color:inherit;" xlink:href="textedit://C:/Users/jwloy/Documents/GitHub/sf005/public/pieces/sf005/notation/InteractiveLoopingLine001.ly:294:64:65">
<g transform="translate(45.4615, 17.3049)">
<path transform="scale(0.0040, -0.0040)" d="M218 136c55 0 108 -28 108 -89c0 -71 -55 -121 -102 -149c-35 -21 -75 -34 -116 -34c-55 0 -108 28 -108 89c0 71 55 121 102 149c35 21 75 34 116 34z" fill="currentColor"/>
</g>
</a>
<a style="color:inherit;" xlink:href="textedit://C:/Users/jwloy/Documents/GitHub/sf005/public/pieces/sf005/notation/InteractiveLoopingLine001.ly:296:8:9">
<g transform="translate(55.7896, 17.3049)">
<path transform="scale(0.0040, -0.0040)" d="M218 136c55 0 108 -28 108 -89c0 -71 -55 -121 -102 -149c-35 -21 -75 -34 -116 -34c-55 0 -108 28 -108 89c0 71 55 121 102 149c35 21 75 34 116 34z" fill="currentColor"/>
</g>
</a>
<a style="color:inherit;" xlink:href="textedit://C:/Users/jwloy/Documents/GitHub/sf005/public/pieces/sf005/notation/InteractiveLoopingLine001.ly:98:8:9">
<g transform="translate(52.1848, 7.5364)">
<path transform="scale(0.0040, -0.0040)" d="M196 117h117c0 -48 27 -94 72 -94c8 0 12 -5 12 -11s-4 -12 -12 -12c-44 0 -87 13 -131 13s-87 -13 -131 -13c-8 0 -12 6 -12 12s4 11 12 11c45 0 73 46 73 94zM204 307c22 14 44 29 60 50c11 15 19 33 27 50c2 4 5 6 9 6c6 0 13 -5 13 -14v-245h72c10 0 15 -7 15 -14
s-5 -15 -15 -15h-72v-8h-117v8h-167c-23 0 -31 14 -31 23c0 3 1 5 2 6c80 93 138 207 138 330c0 10 7 19 16 16c23 -7 47 -13 71 -13s48 6 71 13c14 4 23 -9 17 -16l-284 -330h167v131c0 8 1 17 8 22z" fill="currentColor"/>
</g>
<g transform="translate(52.2531, 9.5509)">
<path transform="scale(0.0040, -0.0040)" d="M259 288c27 29 49 62 49 102c0 55 -57 87 -117 87c-47 0 -75 -36 -75 -71c0 -20 10 -40 30 -52zM289 271c55 -31 83 -79 83 -127c0 -73 -66 -144 -189 -144c-94 0 -183 54 -183 140c0 50 39 85 76 120c-41 28 -61 67 -61 106c0 68 61 134 176 134c81 0 161 -38 161 -110
c0 -47 -30 -85 -63 -119zM106 242c-33 -29 -62 -59 -62 -102c0 -69 66 -117 139 -117c54 0 86 42 86 83c0 24 -10 48 -35 62z" fill="currentColor"/>
</g>
</a>
<a style="color:inherit;" xlink:href="textedit://C:/Users/jwloy/Documents/GitHub/sf005/public/pieces/sf005/notation/InteractiveLoopingLine001.ly:99:11:12">
<g transform="translate(56.3058, 10.0364)">
<path transform="scale(0.0040, -0.0040)" d="M112 0c9 0 16 -10 12 -18l-113 -250c-2 -4 -6 -7 -11 -7s-9 3 -11 7l-113 250c-4 8 3 18 12 18h66c5 0 10 -3 12 -7l68 -150l67 150c2 4 6 7 11 7z" fill="currentColor"/>
</g>
</a>
<g transform="translate(55.8546, 17.3049)">
<rect x="-0.0650" y="0.1861" width="0.1300" height="2.8139" ry="0.0400" fill="currentColor"/>
</g>
<g transform="translate(46.7801, 7.5364)">
<rect x="-0.0650" y="-3.3640" width="0.1300" height="8.4010" ry="0.0400" fill="currentColor"/>
</g>
<a style="color:inherit;" xlink:href="textedit://C:/Users/jwloy/Documents/GitHub/sf005/public/pieces/sf005/notation/InteractiveLoopingLine001.ly:96:72:73">
<g transform="translate(46.7151, 4.0364)">
<path transform="scale(0.0032, -0.0032)" d="M212 138c59 0 113 -31 113 -95c0 -71 -52 -120 -99 -148c-34 -21 -73 -33 -113 -33c-59 0 -113 31 -113 95c0 71 53 120 100 148c34 21 72 33 112 33z" fill="currentColor"/>
</g>
</a>
<a style="color:inherit;" xlink:href="textedit://C:/Users/jwloy/Documents/GitHub/sf005/public/pieces/sf005/notation/InteractiveLoopingLine001.ly:294:24:25">
<g transform="translate(16.4379, 17.3049)">
<path transform="scale(0.0040, -0.0040)" d="M218 136c55 0 108 -28 108 -89c0 -71 -55 -121 -102 -149c-35 -21 -75 -34 -116 -34c-55 0 -108 28 -108 89c0 71 55 121 102 149c35 21 75 34 116 34z" fill="currentColor"/>
</g>
</a>
<g transform="translate(19.9125, 7.5364)">
<rect x="-0.0650" y="-3.0000" width="0.1300" height="5.3640" ry="0.0400" fill="currentColor"/>
</g>
<a style="color:inherit;" xlink:href="textedit://C:/Users/jwloy/Documents/GitHub/sf005/public/pieces/sf005/notation/InteractiveLoopingLine001.ly:96:24:25">
<g transform="translate(18.9450, 10.0364)">
<path transform="scale(0.0032, -0.0032)" d="M212 138c59 0 113 -31 113 -95c0 -71 -52 -120 -99 -148c-34 -21 -73 -33 -113 -33c-59 0 -113 31 -113 95c0 71 53 120 100 148c34 21 72 33 112 33z" fill="currentColor"/>
</g>
</a>
<g transform="translate(16.5679, 20.6399)">
<path transform="scale(0.0040, -0.0040)" d="M0 0h-16v250h16v-250zM0 0v250c97 59 224 148 224 259c0 57 -15 112 -40 163c-3 16 10 27 23 27c7 0 15 -3 20 -11c25 -56 40 -117 40 -179c0 -203 -267 -306 -267 -509z" fill="currentColor"/>
</g>
<g transform="translate(16.5029, 17.3049)">
<rect x="-0.0650" y="0.1861" width="0.1300" height="3.1889" ry="0.0400" fill="currentColor"/>
</g>
<a style="color:inherit;" xlink:href="textedit://C:/Users/jwloy/Documents/GitHub/sf005/public/pieces/sf005/notation/InteractiveLoopingLine001.ly:294:27:28">
<g transform="translate(17.0900, 16.5599)">
<path transform="scale(0.0040, -0.0040)" d="M-112 0c-9 0 -16 10 -12 18l113 250c2 4 6 7 11 7s9 -3 11 -7l113 -250c4 -8 -3 -18 -12 -18h-66c-5 0 -10 3 -12 7l-68 150l-67 -150c-2 -4 -6 -7 -11 -7z" fill="currentColor"/>
</g>
</a>
<g transform="translate(19.9775, 4.5764)">
<path transform="scale(0.0040, -0.0040)" d="M0 -212v-5c0 -110 85 -194 144 -285c3 11 5 23 5 35c0 93 -85 187 -149 255zM0 0c0 -175 191 -292 191 -467c0 -29 -8 -57 -19 -84c17 -35 29 -71 29 -111c0 -36 -8 -72 -23 -105c18 -35 29 -72 29 -113c0 -60 -15 -119 -41 -173c-5 -8 -13 -11 -20 -11
c-13 0 -26 11 -23 27c26 49 42 102 42 157c0 91 -94 175 -165 233v-103h-16v750h16zM0 -430v-5c0 -112 88 -194 149 -285c6 19 10 38 10 58c0 90 -91 173 -159 232z" fill="currentColor"/>
</g>
<a style="color:inherit;" xlink:href="textedit://C:/Users/jwloy/Documents/GitHub/sf005/public/pieces/sf005/notation/InteractiveLoopingLine001.ly:101:8:9">
<g transform="translate(77.0053, 7.5364)">
<g>
<path transform="scale(0.0040, -0.0040)" d="M175 487c18 0 58 31 58 -3v-367c0 -48 28 -94 73 -94c8 0 12 -5 12 -11s-4 -12 -12 -12c-44 0 -87 13 -131 13s-87 -13 -131 -13c-8 0 -12 6 -12 12s4 11 12 11c45 0 73 46 73 94v245c0 12 -9 19 -17 19c-4 0 -8 -3 -10 -7l-64 -136c-3 -6 -7 -9 -12 -9
c-8 0 -16 6 -16 14c0 2 1 5 2 7l117 250c3 6 10 3 16 0c13 -6 27 -13 42 -13z" fill="currentColor"/>

<path transform="translate(1.2633, 0.0000) scale(0.0040, -0.0040)" d="M103 135c9 2 17 3 26 3c33 0 70 -11 105 -36c21 -15 46 -23 66 -23c21 0 39 9 44 29c2 6 6 9 11 9c6 0 12 -5 12 -12c0 -67 -90 -105 -138 -105c-36 0 -71 14 -96 44c-13 16 -31 22 -48 22c-30 0 -59 -20 -62 -55c-1 -7 -6 -11 -11 -11c-6 0 -12 4 -12 11
c0 175 235 165 235 344c0 60 -18 122 -70 122c-26 0 -51 -14 -51 -37c0 -27 35 -41 35 -68c0 -38 -30 -69 -68 -69s-69 31 -69 69c0 76 72 128 153 128c96 0 187 -56 187 -145c0 -153 -151 -159 -249 -220z" fill="currentColor"/>
</g>
</g>
<g transform="translate(77.6370, 9.5850)">
<path transform="scale(0.0040, -0.0040)" d="M259 288c27 29 49 62 49 102c0 55 -57 87 -117 87c-47 0 -75 -36 -75 -71c0 -20 10 -40 30 -52zM289 271c55 -31 83 -79 83 -127c0 -73 -66 -144 -189 -144c-94 0 -183 54 -183 140c0 50 39 85 76 120c-41 28 -61 67 -61 106c0 68 61 134 176 134c81 0 161 -38 161 -110
c0 -47 -30 -85 -63 -119zM106 242c-33 -29 -62 -59 -62 -102c0 -69 66 -117 139 -117c54 0 86 42 86 83c0 24 -10 48 -35 62z" fill="currentColor"/>
</g>
</a>
<a style="color:inherit;" xlink:href="textedit://C:/Users/jwloy/Documents/GitHub/sf005/public/pieces/sf005/notation/InteractiveLoopingLine001.ly:297:8:9">
<g transform="translate(77.0053, 17.3049)">
<g>
<path transform="scale(0.0040, -0.0040)" d="M175 487c18 0 58 31 58 -3v-367c0 -48 28 -94 73 -94c8 0 12 -5 12 -11s-4 -12 -12 -12c-44 0 -87 13 -131 13s-87 -13 -131 -13c-8 0 -12 6 -12 12s4 11 12 11c45 0 73 46 73 94v245c0 12 -9 19 -17 19c-4 0 -8 -3 -10 -7l-64 -136c-3 -6 -7 -9 -12 -9
c-8 0 -16 6 -16 14c0 2 1 5 2 7l117 250c3 6 10 3 16 0c13 -6 27 -13 42 -13z" fill="currentColor"/>

<path transform="translate(1.2633, 0.0000) scale(0.0040, -0.0040)" d="M103 135c9 2 17 3 26 3c33 0 70 -11 105 -36c21 -15 46 -23 66 -23c21 0 39 9 44 29c2 6 6 9 11 9c6 0 12 -5 12 -12c0 -67 -90 -105 -138 -105c-36 0 -71 14 -96 44c-13 16 -31 22 -48 22c-30 0 -59 -20 -62 -55c-1 -7 -6 -11 -11 -11c-6 0 -12 4 -12 11
c0 175 235 165 235 344c0 60 -18 122 -70 122c-26 0 -51 -14 -51 -37c0 -27 35 -41 35 -68c0 -38 -30 -69 -68 -69s-69 31 -69 69c0 76 72 128 153 128c96 0 187 -56 187 -145c0 -153 -151 -159 -249 -220z" fill="currentColor"/>
</g>
</g>
<g transform="translate(77.6370, 19.3535)">
<path transform="scale(0.0040, -0.0040)" d="M259 288c27 29 49 62 49 102c0 55 -57 87 -117 87c-47 0 -75 -36 -75 -71c0 -20 10 -40 30 -52zM289 271c55 -31 83 -79 83 -127c0 -73 -66 -144 -189 -144c-94 0 -183 54 -183 140c0 50 39 85 76 120c-41 28 -61 67 -61 106c0 68 61 134 176 134c81 0 161 -38 161 -110
c0 -47 -30 -85 -63 -119zM106 242c-33 -29 -62 -59 -62 -102c0 -69 66 -117 139 -117c54 0 86 42 86 83c0 24 -10 48 -35 62z" fill="currentColor"/>
</g>
</a>
<g transform="translate(7.3363, 7.5364)">
<rect x="-0.0650" y="-5.0000" width="0.1300" height="5.3640" ry="0.0400" fill="currentColor"/>
</g>
<a style="color:inherit;" xlink:href="textedit://C:/Users/jwloy/Documents/GitHub/sf005/public/pieces/sf005/notation/InteractiveLoopingLine001.ly:294:12:13">
<g transform="translate(7.0209, 16.5599)">
<path transform="scale(0.0040, -0.0040)" d="M-112 0c-9 0 -16 10 -12 18l113 250c2 4 6 7 11 7s9 -3 11 -7l113 -250c4 -8 -3 -18 -12 -18h-66c-5 0 -10 3 -12 7l-68 150l-67 -150c-2 -4 -6 -7 -11 -7z" fill="currentColor"/>
</g>
</a>
<g transform="translate(20.3775, 10.5364)">
<path transform="scale(0.0025, -0.0025)" d="M198 -327c-13 0 -24 11 -24 24v129l-73 -29v-148c0 -13 -11 -24 -24 -24s-23 11 -23 24v129l-10 -4c-4 -2 -8 -2 -12 -2c-17 0 -32 14 -32 32v46c0 13 8 24 20 29l34 14v148l-10 -4c-4 -2 -8 -3 -12 -3c-17 0 -32 14 -32 32v46c0 13 8 25 20 30l34 13v148
c0 13 10 24 23 24s24 -11 24 -24v-129l73 29v148c0 13 11 24 24 24s23 -11 23 -24v-129l10 4c4 2 8 2 12 2c17 0 32 -14 32 -32v-46c0 -13 -8 -24 -20 -29l-34 -14v-148l10 4c4 2 8 3 12 3c17 0 32 -14 32 -32v-46c0 -13 -8 -25 -20 -30l-34 -13v-148c0 -13 -10 -24 -23 -24
zM101 59v-148l73 30v148z" fill="currentColor"/>
</g>
<a style="color:inherit;" xlink:href="textedit://C:/Users/jwloy/Documents/GitHub/sf005/public/pieces/sf005/notation/InteractiveLoopingLine001.ly:294:35:36">
<g transform="translate(25.2852, 17.3049)">
<path transform="scale(0.0040, -0.0040)" d="M218 136c55 0 108 -28 108 -89c0 -71 -55 -121 -102 -149c-35 -21 -75 -34 -116 -34c-55 0 -108 28 -108 89c0 71 55 121 102 149c35 21 75 34 116 34z" fill="currentColor"/>
</g>
</a>
<g transform="translate(13.9567, 20.6399)">
<path transform="scale(0.0040, -0.0040)" d="M0 205c91 51 211 131 211 233c0 24 -5 48 -14 70c-79 -89 -197 -160 -197 -282v-21zM267 663c0 -44 -16 -82 -39 -116c16 -35 25 -71 25 -109c0 -181 -253 -257 -253 -438h-16v500h16v-70c97 49 224 128 224 233c0 21 -5 42 -13 62c-3 16 10 27 23 27c30 0 33 -63 33 -89
z" fill="currentColor"/>
</g>
<g transform="translate(22.7390, 17.3049)">
<rect x="-0.0650" y="0.1861" width="0.1300" height="3.1889" ry="0.0400" fill="currentColor"/>
</g>
<a style="color:inherit;" xlink:href="textedit://C:/Users/jwloy/Documents/GitHub/sf005/public/pieces/sf005/notation/InteractiveLoopingLine001.ly:294:30:31">
<g transform="translate(22.6740, 17.3049)">
<path transform="scale(0.0040, -0.0040)" d="M218 136c55 0 108 -28 108 -89c0 -71 -55 -121 -102 -149c-35 -21 -75 -34 -116 -34c-55 0 -108 28 -108 89c0 71 55 121 102 149c35 21 75 34 116 34z" fill="currentColor"/>
</g>
</a>
<g transform="translate(22.4529, 5.0764)">
<path transform="scale(0.0040, -0.0040)" d="M0 0v-250h-16v250h16zM0 0c0 -197 207 -336 207 -533c0 -71 -15 -141 -41 -207c-5 -8 -13 -12 -20 -12c-13 0 -26 11 -23 27c26 61 42 126 42 192c0 103 -94 208 -165 283v250z" fill="currentColor"/>
</g>
<g transform="translate(22.3879, 7.5364)">
<rect x="-0.0650" y="-2.5000" width="0.1300" height="5.3640" ry="0.0400" fill="currentColor"/>
</g>
<a style="color:inherit;" xlink:href="textedit://C:/Users/jwloy/Documents/GitHub/sf005/public/pieces/sf005/notation/InteractiveLoopingLine001.ly:96:29:30">
<g transform="translate(21.4204, 10.5364)">
<path transform="scale(0.0032, -0.0032)" d="M212 138c59 0 113 -31 113 -95c0 -71 -52 -120 -99 -148c-34 -21 -73 -33 -113 -33c-59 0 -113 31 -113 95c0 71 53 120 100 148c34 21 72 33 112 33z" fill="currentColor"/>
</g>
</a>
<a style="color:inherit;" xlink:href="textedit://C:/Users/jwloy/Documents/GitHub/sf005/public/pieces/sf005/notation/InteractiveLoopingLine001.ly:293:8:9">
<g transform="translate(1.6373, 17.3049)">
<g>
<path transform="scale(0.0040, -0.0040)" d="M150 477c-29 0 -59 -8 -59 -33c0 -22 36 -25 36 -47c0 -32 -26 -58 -58 -58s-57 26 -57 58c0 65 67 103 138 103c91 0 169 -33 169 -114c0 -43 -4 -82 -42 -100c-9 -4 -14 -12 -14 -21s5 -18 14 -22c41 -19 56 -57 56 -103c0 -92 -79 -140 -179 -140
c-79 0 -154 42 -154 113c0 36 30 66 66 66s65 -30 65 -66c0 -25 -40 -28 -40 -53c0 -27 32 -37 63 -37c49 0 63 61 63 117v16c0 54 -2 94 -50 94h-80c-10 0 -14 8 -14 15s4 14 14 14h80c49 0 50 43 50 99v8c0 54 -18 91 -67 91z" fill="currentColor"/>

<path transform="translate(1.3316, 0.0000) scale(0.0040, -0.0040)" d="M46 500c46 -8 91 -13 137 -13s92 5 138 13c15 2 23 -10 17 -16c-68 -68 -166 -93 -263 -93c-9 0 -17 -8 -17 -17v-96c28 28 66 43 105 43c116 0 186 -51 186 -161c0 -94 -87 -160 -186 -160c-82 0 -163 39 -163 113c0 36 30 66 66 66s65 -30 65 -66
c0 -25 -40 -28 -40 -53c0 -30 37 -37 72 -37c57 0 70 71 70 137c0 63 -15 132 -70 132c-42 0 -83 -12 -107 -45c-3 -4 -8 -6 -12 -6c-8 0 -15 6 -15 15v228c0 10 8 18 17 16z" fill="currentColor"/>
</g>
</g>
<g transform="translate(1.5691, 19.3194)">
<g>
<path transform="scale(0.0040, -0.0040)" d="M150 477c-29 0 -59 -8 -59 -33c0 -22 36 -25 36 -47c0 -32 -26 -58 -58 -58s-57 26 -57 58c0 65 67 103 138 103c91 0 169 -33 169 -114c0 -43 -4 -82 -42 -100c-9 -4 -14 -12 -14 -21s5 -18 14 -22c41 -19 56 -57 56 -103c0 -92 -79 -140 -179 -140
c-79 0 -154 42 -154 113c0 36 30 66 66 66s65 -30 65 -66c0 -25 -40 -28 -40 -53c0 -27 32 -37 63 -37c49 0 63 61 63 117v16c0 54 -2 94 -50 94h-80c-10 0 -14 8 -14 15s4 14 14 14h80c49 0 50 43 50 99v8c0 54 -18 91 -67 91z" fill="currentColor"/>

<path transform="translate(1.3316, 0.0000) scale(0.0040, -0.0040)" d="M103 135c9 2 17 3 26 3c33 0 70 -11 105 -36c21 -15 46 -23 66 -23c21 0 39 9 44 29c2 6 6 9 11 9c6 0 12 -5 12 -12c0 -67 -90 -105 -138 -105c-36 0 -71 14 -96 44c-13 16 -31 22 -48 22c-30 0 -59 -20 -62 -55c-1 -7 -6 -11 -11 -11c-6 0 -12 4 -12 11
c0 175 235 165 235 344c0 60 -18 122 -70 122c-26 0 -51 -14 -51 -37c0 -27 35 -41 35 -68c0 -38 -30 -69 -68 -69s-69 31 -69 69c0 76 72 128 153 128c96 0 187 -56 187 -145c0 -153 -151 -159 -249 -220z" fill="currentColor"/>
</g>
</g>
</a>
<a style="color:inherit;" xlink:href="textedit://C:/Users/jwloy/Documents/GitHub/sf005/public/pieces/sf005/notation/InteractiveLoopingLine001.ly:95:8:9">
<g transform="translate(1.6373, 7.5364)">
<g>
<path transform="scale(0.0040, -0.0040)" d="M150 477c-29 0 -59 -8 -59 -33c0 -22 36 -25 36 -47c0 -32 -26 -58 -58 -58s-57 26 -57 58c0 65 67 103 138 103c91 0 169 -33 169 -114c0 -43 -4 -82 -42 -100c-9 -4 -14 -12 -14 -21s5 -18 14 -22c41 -19 56 -57 56 -103c0 -92 -79 -140 -179 -140
c-79 0 -154 42 -154 113c0 36 30 66 66 66s65 -30 65 -66c0 -25 -40 -28 -40 -53c0 -27 32 -37 63 -37c49 0 63 61 63 117v16c0 54 -2 94 -50 94h-80c-10 0 -14 8 -14 15s4 14 14 14h80c49 0 50 43 50 99v8c0 54 -18 91 -67 91z" fill="currentColor"/>

<path transform="translate(1.3316, 0.0000) scale(0.0040, -0.0040)" d="M46 500c46 -8 91 -13 137 -13s92 5 138 13c15 2 23 -10 17 -16c-68 -68 -166 -93 -263 -93c-9 0 -17 -8 -17 -17v-96c28 28 66 43 105 43c116 0 186 -51 186 -161c0 -94 -87 -160 -186 -160c-82 0 -163 39 -163 113c0 36 30 66 66 66s65 -30 65 -66
c0 -25 -40 -28 -40 -53c0 -30 37 -37 72 -37c57 0 70 71 70 137c0 63 -15 132 -70 132c-42 0 -83 -12 -107 -45c-3 -4 -8 -6 -12 -6c-8 0 -15 6 -15 15v228c0 10 8 18 17 16z" fill="currentColor"/>
</g>
</g>
<g transform="translate(1.5691, 9.5509)">
<g>
<path transform="scale(0.0040, -0.0040)" d="M150 477c-29 0 -59 -8 -59 -33c0 -22 36 -25 36 -47c0 -32 -26 -58 -58 -58s-57 26 -57 58c0 65 67 103 138 103c91 0 169 -33 169 -114c0 -43 -4 -82 -42 -100c-9 -4 -14 -12 -14 -21s5 -18 14 -22c41 -19 56 -57 56 -103c0 -92 -79 -140 -179 -140
c-79 0 -154 42 -154 113c0 36 30 66 66 66s65 -30 65 -66c0 -25 -40 -28 -40 -53c0 -27 32 -37 63 -37c49 0 63 61 63 117v16c0 54 -2 94 -50 94h-80c-10 0 -14 8 -14 15s4 14 14 14h80c49 0 50 43 50 99v8c0 54 -18 91 -67 91z" fill="currentColor"/>

<path transform="translate(1.3316, 0.0000) scale(0.0040, -0.0040)" d="M103 135c9 2 17 3 26 3c33 0 70 -11 105 -36c21 -15 46 -23 66 -23c21 0 39 9 44 29c2 6 6 9 11 9c6 0 12 -5 12 -12c0 -67 -90 -105 -138 -105c-36 0 -71 14 -96 44c-13 16 -31 22 -48 22c-30 0 -59 -20 -62 -55c-1 -7 -6 -11 -11 -11c-6 0 -12 4 -12 11
c0 175 235 165 235 344c0 60 -18 122 -70 122c-26 0 -51 -14 -51 -37c0 -27 35 -41 35 -68c0 -38 -30 -69 -68 -69s-69 31 -69 69c0 76 72 128 153 128c96 0 187 -56 187 -145c0 -153 -151 -159 -249 -220z" fill="currentColor"/>
</g>
</g>
</a>
<g transform="translate(0.5091, 11.4207)">
<rect x="0.0000" y="-5.9342" width="0.1600" height="11.8685" ry="0.0500" fill="currentColor"/>
</g>
<g transform="translate(-0.7409, 5.2614)">
<path transform="scale(0.0040, -0.0040)" d="M0 -56v87c0 14 11 25 25 25h50c159 0 271 136 362 270c11 17 37 -1 26 -18c-99 -144 -215 -364 -388 -364h-75z" fill="currentColor"/>
</g>
<g transform="translate(-0.7409, 17.5799)">
<path transform="scale(0.0040, -0.0040)" d="M0 56h75c173 0 289 -220 388 -364c11 -17 -15 -35 -26 -18c-91 134 -203 270 -362 270h-50c-14 0 -25 11 -25 25v87z" fill="currentColor"/>
</g>
<g transform="translate(-0.7409, 11.4207)">
<rect x="0.0000" y="-5.9792" width="0.4500" height="11.9585" ry="0.0000" fill="currentColor"/>
</g>
<g transform="translate(48.0339, 7.5364)">
<rect x="-0.0650" y="0.6360" width="0.1300" height="5.1140" ry="0.0400" fill="currentColor"/>
</g>
<a style="color:inherit;" xlink:href="textedit://C:/Users/jwloy/Documents/GitHub/sf005/public/pieces/sf005/notation/InteractiveLoopingLine001.ly:294:8:9">
<g transform="translate(6.3688, 17.3049)">
<path transform="scale(0.0040, -0.0040)" d="M218 136c55 0 108 -28 108 -89c0 -71 -55 -121 -102 -149c-35 -21 -75 -34 -116 -34c-55 0 -108 28 -108 89c0 71 55 121 102 149c35 21 75 34 116 34z" fill="currentColor"/>
</g>
</a>
<a style="color:inherit;" xlink:href="textedit://C:/Users/jwloy/Documents/GitHub/sf005/public/pieces/sf005/notation/InteractiveLoopingLine001.ly:96:76:77">
<g transform="translate(47.9689, 8.0364)">
<path transform="scale(0.0032, -0.0032)" d="M212 138c59 0 113 -31 113 -95c0 -71 -52 -120 -99 -148c-34 -21 -73 -33 -113 -33c-59 0 -113 31 -113 95c0 71 53 120 100 148c34 21 72 33 112 33z" fill="currentColor"/>
</g>
</a>
<a style="color:inherit;" xlink:href="textedit://C:/Users/jwloy/Documents/GitHub/sf005/public/pieces/sf005/notation/InteractiveLoopingLine001.ly:96:12:13">
<g transform="translate(6.8850, 9.0364)">
<path transform="scale(0.0040, -0.0040)" d="M112 0c9 0 16 -10 12 -18l-113 -250c-2 -4 -6 -7 -11 -7s-9 3 -11 7l-113 250c-4 8 3 18 12 18h66c5 0 10 -3 12 -7l68 -150l67 150c2 4 6 7 11 7z" fill="currentColor"/>
</g>
</a>
<a style="color:inherit;" xlink:href="textedit://C:/Users/jwloy/Documents/GitHub/sf005/public/pieces/sf005/notation/InteractiveLoopingLine001.ly:96:8:9">
<g transform="translate(6.3688, 8.0364)">
<path transform="scale(0.0032, -0.0032)" d="M212 138c59 0 113 -31 113 -95c0 -71 -52 -120 -99 -148c-34 -21 -73 -33 -113 -33c-59 0 -113 31 -113 95c0 71 53 120 100 148c34 21 72 33 112 33z" fill="currentColor"/>
</g>
</a>
<g transform="translate(22.8040, 20.6399)">
<path transform="scale(0.0040, -0.0040)" d="M0 205c91 51 211 131 211 233c0 24 -5 48 -14 70c-79 -89 -197 -160 -197 -282v-21zM267 663c0 -44 -16 -82 -39 -116c16 -35 25 -71 25 -109c0 -181 -253 -257 -253 -438h-16v500h16v-70c97 49 224 128 224 233c0 21 -5 42 -13 62c-3 16 10 27 23 27c30 0 33 -63 33 -89
z" fill="currentColor"/>
</g>
<g transform="translate(33.0406, 20.6399)">
<path transform="scale(0.0040, -0.0040)" d="M0 0h-16v250h16v-250zM0 0v250c97 59 224 148 224 259c0 57 -15 112 -40 163c-3 16 10 27 23 27c7 0 15 -3 20 -11c25 -56 40 -117 40 -179c0 -203 -267 -306 -267 -509z" fill="currentColor"/>
</g>
<g transform="translate(32.9756, 17.3049)">
<rect x="-0.0650" y="0.1861" width="0.1300" height="3.1889" ry="0.0400" fill="currentColor"/>
</g>
<g transform="translate(35.5648, 16.8049)">
<path transform="scale(0.0040, -0.0040)" d="M0 0c0 31 25 56 56 56s56 -25 56 -56s-25 -56 -56 -56s-56 25 -56 56z" fill="currentColor"/>
</g>
<g transform="translate(34.6648, 16.8049)">
<path transform="scale(0.0040, -0.0040)" d="M0 0c0 31 25 56 56 56s56 -25 56 -56s-25 -56 -56 -56s-56 25 -56 56z" fill="currentColor"/>
</g>
<a style="color:inherit;" xlink:href="textedit://C:/Users/jwloy/Documents/GitHub/sf005/public/pieces/sf005/notation/InteractiveLoopingLine001.ly:294:51:52">
<g transform="translate(33.5627, 16.5599)">
<path transform="scale(0.0040, -0.0040)" d="M-112 0c-9 0 -16 10 -12 18l113 250c2 4 6 7 11 7s9 -3 11 -7l113 -250c4 -8 -3 -18 -12 -18h-66c-5 0 -10 3 -12 7l-68 150l-67 -150c-2 -4 -6 -7 -11 -7z" fill="currentColor"/>
</g>
</a>
<a style="color:inherit;" xlink:href="textedit://C:/Users/jwloy/Documents/GitHub/sf005/public/pieces/sf005/notation/InteractiveLoopingLine001.ly:294:46:47">
<g transform="translate(32.9106, 17.3049)">
<path transform="scale(0.0040, -0.0040)" d="M218 136c55 0 108 -28 108 -89c0 -71 -55 -121 -102 -149c-35 -21 -75 -34 -116 -34c-55 0 -108 28 -108 89c0 71 55 121 102 149c35 21 75 34 116 34z" fill="currentColor"/>
</g>
</a>
<g transform="translate(30.8031, 7.5364)">
<path transform="scale(0.0025, -0.0025)" d="M34 33l-1 -58v-10c0 -21 2 -43 5 -64c41 38 85 80 85 136c0 31 -13 63 -40 63c-31 0 -48 -33 -49 -67zM32 441l-8 -333c25 27 60 42 97 42c49 0 79 -52 79 -106c0 -76 -78 -117 -133 -169c-19 -18 -27 -52 -55 -52c-17 0 -30 17 -30 35l-14 583c10 6 21 9 32 9
s22 -3 32 -9z" fill="currentColor"/>
</g>
<g transform="translate(31.7871, 12.8714)">
<path transform="scale(0.0040, -0.0040)" d="M0 0h-16v250h16v-250zM0 0v250c97 59 224 148 224 259c0 57 -15 112 -40 163c-3 16 10 27 23 27c7 0 15 -3 20 -11c25 -56 40 -117 40 -179c0 -203 -267 -306 -267 -509z" fill="currentColor"/>
</g>
<g transform="translate(25.3502, 17.3049)">
<rect x="-0.0650" y="0.1861" width="0.1300" height="3.1889" ry="0.0400" fill="currentColor"/>
</g>
<a style="color:inherit;" xlink:href="textedit://C:/Users/jwloy/Documents/GitHub/sf005/public/pieces/sf005/notation/InteractiveLoopingLine001.ly:96:38:39">
<g transform="translate(31.6571, 7.5364)">
<path transform="scale(0.0032, -0.0032)" d="M212 138c59 0 113 -31 113 -95c0 -71 -52 -120 -99 -148c-34 -21 -73 -33 -113 -33c-59 0 -113 31 -113 95c0 71 53 120 100 148c34 21 72 33 112 33z" fill="currentColor"/>
</g>
</a>
<g transform="translate(30.5336, 20.6399)">
<path transform="scale(0.0040, -0.0040)" d="M0 205c91 51 211 131 211 233c0 24 -5 48 -14 70c-79 -89 -197 -160 -197 -282v-21zM267 663c0 -44 -16 -82 -39 -116c16 -35 25 -71 25 -109c0 -181 -253 -257 -253 -438h-16v500h16v-70c97 49 224 128 224 233c0 21 -5 42 -13 62c-3 16 10 27 23 27c30 0 33 -63 33 -89
z" fill="currentColor"/>
</g>
<g transform="translate(7.4013, 2.5764)">
<path transform="scale(0.0040, -0.0040)" d="M0 0c0 -177 201 -293 201 -470c0 -33 -9 -65 -23 -95c18 -37 29 -75 29 -117c0 -63 -15 -125 -41 -183c-5 -8 -13 -12 -20 -12c-13 0 -26 11 -23 27c26 52 42 110 42 168c0 97 -94 190 -165 257v-75h-16v500h16zM151 -517c5 15 8 31 8 47c0 96 -91 190 -159 257
c0 -118 90 -206 151 -304z" fill="currentColor"/>
</g>
<g transform="translate(31.7221, 7.5364)">
<rect x="-0.0650" y="0.1360" width="0.1300" height="5.2390" ry="0.0400" fill="currentColor"/>
</g>
<g transform="translate(37.7037, 3.0764)">
<path transform="scale(0.0040, -0.0040)" d="M0 0v-250h-16v250h16zM0 0c0 -197 207 -336 207 -533c0 -71 -15 -141 -41 -207c-5 -8 -13 -12 -20 -12c-13 0 -26 11 -23 27c26 61 42 126 42 192c0 103 -94 208 -165 283v250z" fill="currentColor"/>
</g>
<g transform="translate(37.6387, 7.5364)">
<rect x="-0.0650" y="-4.5000" width="0.1300" height="5.3640" ry="0.0400" fill="currentColor"/>
</g>
<a style="color:inherit;" xlink:href="textedit://C:/Users/jwloy/Documents/GitHub/sf005/public/pieces/sf005/notation/InteractiveLoopingLine001.ly:96:43:44">
<g transform="translate(36.6712, 8.5364)">
<path transform="scale(0.0032, -0.0032)" d="M212 138c59 0 113 -31 113 -95c0 -71 -52 -120 -99 -148c-34 -21 -73 -33 -113 -33c-59 0 -113 31 -113 95c0 71 53 120 100 148c34 21 72 33 112 33z" fill="currentColor"/>
</g>
</a>
<g transform="translate(25.4152, 20.6399)">
<path transform="scale(0.0040, -0.0040)" d="M0 205c91 51 211 131 211 233c0 24 -5 48 -14 70c-79 -89 -197 -160 -197 -282v-21zM267 663c0 -44 -16 -82 -39 -116c16 -35 25 -71 25 -109c0 -181 -253 -257 -253 -438h-16v500h16v-70c97 49 224 128 224 233c0 21 -5 42 -13 62c-3 16 10 27 23 27c30 0 33 -63 33 -89
z" fill="currentColor"/>
</g>
<a style="color:inherit;" xlink:href="textedit://C:/Users/jwloy/Documents/GitHub/sf005/public/pieces/sf005/notation/InteractiveLoopingLine001.ly:96:35:36">
<g transform="translate(26.5388, 10.5364)">
<path transform="scale(0.0032, -0.0032)" d="M212 138c59 0 113 -31 113 -95c0 -71 -52 -120 -99 -148c-34 -21 -73 -33 -113 -33c-59 0 -113 31 -113 95c0 71 53 120 100 148c34 21 72 33 112 33z" fill="currentColor"/>
</g>
</a>
<g transform="translate(27.5062, 7.5364)">
<rect x="-0.0650" y="-2.5000" width="0.1300" height="5.3640" ry="0.0400" fill="currentColor"/>
</g>
<g transform="translate(27.5712, 5.0764)">
<path transform="scale(0.0040, -0.0040)" d="M0 0v-250h-16v250h16zM0 0c0 -197 207 -336 207 -533c0 -71 -15 -141 -41 -207c-5 -8 -13 -12 -20 -12c-13 0 -26 11 -23 27c26 61 42 126 42 192c0 103 -94 208 -165 283v250z" fill="currentColor"/>
</g>
<g transform="translate(25.7551, 10.5364)">
<path transform="scale(0.0025, -0.0025)" d="M-9 375c9 5 19 8 29 8s19 -3 28 -8l-3 -202l97 26c2 0 3 1 5 1c11 0 20 -9 20 -20l8 -555c-9 -5 -18 -8 -28 -8s-20 3 -29 8l3 202l-96 -26c-2 0 -3 -1 -5 -1c-11 0 -20 9 -20 20zM126 108l-82 -22l-3 -194l82 22z" fill="currentColor"/>
</g>
<a style="color:inherit;" xlink:href="textedit://C:/Users/jwloy/Documents/GitHub/sf005/public/pieces/sf005/notation/InteractiveLoopingLine001.ly:294:38:39">
<g transform="translate(27.7923, 17.3049)">
<path transform="scale(0.0040, -0.0040)" d="M218 136c55 0 108 -28 108 -89c0 -71 -55 -121 -102 -149c-35 -21 -75 -34 -116 -34c-55 0 -108 28 -108 89c0 71 55 121 102 149c35 21 75 34 116 34z" fill="currentColor"/>
</g>
</a>
<a style="color:inherit;" xlink:href="textedit://C:/Users/jwloy/Documents/GitHub/sf005/public/pieces/sf005/notation/InteractiveLoopingLine001.ly:294:40:41">
<g transform="translate(28.4444, 16.5599)">
<path transform="scale(0.0040, -0.0040)" d="M-112 0c-9 0 -16 10 -12 18l113 250c2 4 6 7 11 7s9 -3 11 -7l113 -250c4 -8 -3 -18 -12 -18h-66c-5 0 -10 3 -12 7l-68 150l-67 -150c-2 -4 -6 -7 -11 -7z" fill="currentColor"/>
</g>
</a>
<g transform="translate(30.4686, 17.3049)">
<rect x="-0.0650" y="0.1861" width="0.1300" height="3.1889" ry="0.0400" fill="currentColor"/>
</g>
<a style="color:inherit;" xlink:href="textedit://C:/Users/jwloy/Documents/GitHub/sf005/public/pieces/sf005/notation/InteractiveLoopingLine001.ly:294:43:44">
<g transform="translate(30.4036, 17.3049)">
<path transform="scale(0.0040, -0.0040)" d="M218 136c55 0 108 -28 108 -89c0 -71 -55 -121 -102 -149c-35 -21 -75 -34 -116 -34c-55 0 -108 28 -108 89c0 71 55 121 102 149c35 21 75 34 116 34z" fill="currentColor"/>
</g>
</a>
<g transform="translate(27.9223, 20.6399)">
<path transform="scale(0.0040, -0.0040)" d="M0 205c91 51 211 131 211 233c0 24 -5 48 -14 70c-79 -89 -197 -160 -197 -282v-21zM267 663c0 -44 -16 -82 -39 -116c16 -35 25 -71 25 -109c0 -181 -253 -257 -253 -438h-16v500h16v-70c97 49 224 128 224 233c0 21 -5 42 -13 62c-3 16 10 27 23 27c30 0 33 -63 33 -89
z" fill="currentColor"/>
</g>
<g transform="translate(27.8573, 17.3049)">
<rect x="-0.0650" y="0.1861" width="0.1300" height="3.1889" ry="0.0400" fill="currentColor"/>
</g>
<g transform="translate(0.5691, 43.5263)">
<line stroke-linejoin="round" stroke-linecap="round" stroke-width="0.1000" stroke="currentColor" x1="0.0500" y1="0" x2="79.6177" y2="0"/>
</g>
<g transform="translate(0.5691, 42.5263)">
<line stroke-linejoin="round" stroke-linecap="round" stroke-width="0.1000" stroke="currentColor" x1="0.0500" y1="0" x2="79.6177" y2="0"/>
</g>
<g transform="translate(0.5691, 41.5263)">
<line stroke-linejoin="round" stroke-linecap="round" stroke-width="0.1000" stroke="currentColor" x1="0.0500" y1="0" x2="79.6177" y2="0"/>
</g>
<g transform="translate(0.5691, 40.5263)">
<line stroke-linejoin="round" stroke-linecap="round" stroke-width="0.1000" stroke="currentColor" x1="0.0500" y1="0" x2="79.6177" y2="0"/>
</g>
<g transform="translate(0.5691, 39.5263)">
<line stroke-linejoin="round" stroke-linecap="round" stroke-width="0.1000" stroke="currentColor" x1="0.0500" y1="0" x2="79.6177" y2="0"/>
</g>
<g transform="translate(0.5691, 38.5263)">
<rect x="72.4769" y="-0.1000" width="1.4656" height="0.2000" ry="0.1000" fill="currentColor"/>
</g>
<g transform="translate(0.5691, 51.2948)">
<line stroke-linejoin="round" stroke-linecap="round" stroke-width="0.1000" stroke="currentColor" x1="0.0500" y1="0" x2="79.6177" y2="0"/>
</g>
<g transform="translate(77.1920, 36.8924)">
<rect x="0.0000" y="6.6839" width="0.1900" height="6.7185" ry="0.0000" fill="currentColor"/>
</g>
<g transform="translate(77.1920, 51.2948)">
<rect x="0.0000" y="-1.1000" width="0.1900" height="2.1500" ry="0.0000" fill="currentColor"/>
</g>
<g transform="translate(77.1920, 41.5263)">
<rect x="0.0000" y="-2.0000" width="0.1900" height="4.0500" ry="0.0000" fill="currentColor"/>
</g>
<g transform="translate(58.9912, 41.5263)">
<rect x="-0.0650" y="0.6360" width="0.1300" height="4.3640" ry="0.0400" fill="currentColor"/>
</g>
<g transform="translate(63.5048, 41.5263)">
<rect x="-0.0650" y="0.1360" width="0.1300" height="4.8640" ry="0.0400" fill="currentColor"/>
</g>
<a style="color:inherit;" xlink:href="textedit://C:/Users/jwloy/Documents/GitHub/sf005/public/pieces/sf005/notation/InteractiveLoopingLine001.ly:102:98:99">
<g transform="translate(63.4398, 41.5263)">
<path transform="scale(0.0032, -0.0032)" d="M212 138c59 0 113 -31 113 -95c0 -71 -52 -120 -99 -148c-34 -21 -73 -33 -113 -33c-59 0 -113 31 -113 95c0 71 53 120 100 148c34 21 72 33 112 33z" fill="currentColor"/>
</g>
</a>
<g transform="translate(6.3655, 51.2948)">
<rect x="-0.0650" y="0.1861" width="0.1300" height="2.8139" ry="0.0400" fill="currentColor"/>
</g>
<a style="color:inherit;" xlink:href="textedit://C:/Users/jwloy/Documents/GitHub/sf005/public/pieces/sf005/notation/InteractiveLoopingLine001.ly:102:13:14">
<g transform="translate(6.8168, 40.0263)">
<path transform="scale(0.0040, -0.0040)" d="M-112 0c-9 0 -16 10 -12 18l113 250c2 4 6 7 11 7s9 -3 11 -7l113 -250c4 -8 -3 -18 -12 -18h-66c-5 0 -10 3 -12 7l-68 150l-67 -150c-2 -4 -6 -7 -11 -7z" fill="currentColor"/>
</g>
</a>
<g transform="translate(14.8352, 41.5263)">
<rect x="-0.0650" y="0.6360" width="0.1300" height="4.8640" ry="0.0400" fill="currentColor"/>
</g>
<g transform="translate(64.3825, 51.2948)">
<rect x="-0.0650" y="0.1861" width="0.1300" height="2.8139" ry="0.0400" fill="currentColor"/>
</g>
<a style="color:inherit;" xlink:href="textedit://C:/Users/jwloy/Documents/GitHub/sf005/public/pieces/sf005/notation/InteractiveLoopingLine001.ly:298:48:49">
<g transform="translate(64.9696, 50.5498)">
<path transform="scale(0.0040, -0.0040)" d="M-112 0c-9 0 -16 10 -12 18l113 250c2 4 6 7 11 7s9 -3 11 -7l113 -250c4 -8 -3 -18 -12 -18h-66c-5 0 -10 3 -12 7l-68 150l-67 -150c-2 -4 -6 -7 -11 -7z" fill="currentColor"/>
</g>
</a>
<a style="color:inherit;" xlink:href="textedit://C:/Users/jwloy/Documents/GitHub/sf005/public/pieces/sf005/notation/InteractiveLoopingLine001.ly:298:46:47">
<g transform="translate(64.3175, 51.2948)">
<path transform="scale(0.0040, -0.0040)" d="M218 136c55 0 108 -28 108 -89c0 -71 -55 -121 -102 -149c-35 -21 -75 -34 -116 -34c-55 0 -108 28 -108 89c0 71 55 121 102 149c35 21 75 34 116 34z" fill="currentColor"/>
</g>
</a>
<a style="color:inherit;" xlink:href="textedit://C:/Users/jwloy/Documents/GitHub/sf005/public/pieces/sf005/notation/InteractiveLoopingLine001.ly:102:8:9">
<g transform="translate(6.3005, 41.0263)">
<path transform="scale(0.0032, -0.0032)" d="M212 138c59 0 113 -31 113 -95c0 -71 -52 -120 -99 -148c-34 -21 -73 -33 -113 -33c-59 0 -113 31 -113 95c0 71 53 120 100 148c34 21 72 33 112 33z" fill="currentColor"/>
</g>
</a>
<a style="color:inherit;" xlink:href="textedit://C:/Users/jwloy/Documents/GitHub/sf005/public/pieces/sf005/notation/InteractiveLoopingLine001.ly:298:8:9">
<g transform="translate(6.3005, 51.2948)">
<path transform="scale(0.0040, -0.0040)" d="M218 136c55 0 108 -28 108 -89c0 -71 -55 -121 -102 -149c-35 -21 -75 -34 -116 -34c-55 0 -108 28 -108 89c0 71 55 121 102 149c35 21 75 34 116 34z" fill="currentColor"/>
</g>
</a>
<a style="color:inherit;" xlink:href="textedit://C:/Users/jwloy/Documents/GitHub/sf005/public/pieces/sf005/notation/InteractiveLoopingLine001.ly:298:11:12">
<g transform="translate(6.9526, 50.5498)">
<path transform="scale(0.0040, -0.0040)" d="M-112 0c-9 0 -16 10 -12 18l113 250c2 4 6 7 11 7s9 -3 11 -7l113 -250c4 -8 -3 -18 -12 -18h-66c-5 0 -10 3 -12 7l-68 150l-67 -150c-2 -4 -6 -7 -11 -7z" fill="currentColor"/>
</g>
</a>
<g transform="translate(6.3655, 41.5263)">
<rect x="-0.0650" y="-0.3640" width="0.1300" height="5.8640" ry="0.0400" fill="currentColor"/>
</g>
<g transform="translate(12.3271, 51.2948)">
<rect x="-0.0650" y="0.1861" width="0.1300" height="2.8139" ry="0.0400" fill="currentColor"/>
</g>
<a style="color:inherit;" xlink:href="textedit://C:/Users/jwloy/Documents/GitHub/sf005/public/pieces/sf005/notation/InteractiveLoopingLine001.ly:102:35:36">
<g transform="translate(23.6516, 47.9597)">
<line stroke-linejoin="round" stroke-linecap="round" stroke-width="0.1600" stroke="currentColor" x1="16.0380" y1="-0.0000" x2="16.0380" y2="-0.7000"/>
</g>
<g transform="translate(23.6516, 47.9597)">
<line stroke-linejoin="round" stroke-linecap="round" stroke-width="0.1600" stroke="currentColor" x1="-0.2000" y1="-0.0000" x2="-0.2000" y2="-0.7000"/>
</g>
<g transform="translate(23.6516, 47.9597)">
<line stroke-linejoin="round" stroke-linecap="round" stroke-width="0.1600" stroke="currentColor" x1="16.0380" y1="-0.0000" x2="8.9629" y2="-0.0000"/>
</g>
<g transform="translate(23.6516, 47.9597)">
<line stroke-linejoin="round" stroke-linecap="round" stroke-width="0.1600" stroke="currentColor" x1="-0.2000" y1="-0.0000" x2="7.0752" y2="-0.0000"/>
</g>
</a>
<g transform="translate(16.2527, 42.0263)">
<path transform="scale(0.0040, -0.0040)" d="M0 0c0 31 25 56 56 56s56 -25 56 -56s-25 -56 -56 -56s-56 25 -56 56z" fill="currentColor"/>
</g>
<a style="color:inherit;" xlink:href="textedit://C:/Users/jwloy/Documents/GitHub/sf005/public/pieces/sf005/notation/InteractiveLoopingLine001.ly:102:30:31">
<g transform="translate(14.7702, 42.0263)">
<path transform="scale(0.0032, -0.0032)" d="M212 138c59 0 113 -31 113 -95c0 -71 -52 -120 -99 -148c-34 -21 -73 -33 -113 -33c-59 0 -113 31 -113 95c0 71 53 120 100 148c34 21 72 33 112 33z" fill="currentColor"/>
</g>
</a>
<g transform="translate(12.8709, 40.0263)">
<path transform="scale(0.0025, -0.0025)" d="M34 33l-1 -58v-10c0 -21 2 -43 5 -64c41 38 85 80 85 136c0 31 -13 63 -40 63c-31 0 -48 -33 -49 -67zM32 441l-8 -333c25 27 60 42 97 42c49 0 79 -52 79 -106c0 -76 -78 -117 -133 -169c-19 -18 -27 -52 -55 -52c-17 0 -30 17 -30 35l-14 583c10 6 21 9 32 9
s22 -3 32 -9z" fill="currentColor"/>
</g>
<g transform="translate(13.7899, 41.5263)">
<rect x="-0.0650" y="-1.3640" width="0.1300" height="6.8640" ry="0.0400" fill="currentColor"/>
</g>
<a style="color:inherit;" xlink:href="textedit://C:/Users/jwloy/Documents/GitHub/sf005/public/pieces/sf005/notation/InteractiveLoopingLine001.ly:102:22:23">
<g transform="translate(13.7249, 40.0263)">
<path transform="scale(0.0032, -0.0032)" d="M212 138c59 0 113 -31 113 -95c0 -71 -52 -120 -99 -148c-34 -21 -73 -33 -113 -33c-59 0 -113 31 -113 95c0 71 53 120 100 148c34 21 72 33 112 33z" fill="currentColor"/>
</g>
</a>
<g transform="translate(58.6986, 51.2948)">
<rect x="-0.0650" y="0.1861" width="0.1300" height="2.8139" ry="0.0400" fill="currentColor"/>
</g>
<a style="color:inherit;" xlink:href="textedit://C:/Users/jwloy/Documents/GitHub/sf005/public/pieces/sf005/notation/InteractiveLoopingLine001.ly:102:94:95">
<g transform="translate(58.9262, 42.0263)">
<path transform="scale(0.0032, -0.0032)" d="M212 138c59 0 113 -31 113 -95c0 -71 -52 -120 -99 -148c-34 -21 -73 -33 -113 -33c-59 0 -113 31 -113 95c0 71 53 120 100 148c34 21 72 33 112 33z" fill="currentColor"/>
</g>
</a>
<a style="color:inherit;" xlink:href="textedit://C:/Users/jwloy/Documents/GitHub/sf005/public/pieces/sf005/notation/InteractiveLoopingLine001.ly:298:17:18">
<g transform="translate(12.9142, 50.5498)">
<path transform="scale(0.0040, -0.0040)" d="M-112 0c-9 0 -16 10 -12 18l113 250c2 4 6 7 11 7s9 -3 11 -7l113 -250c4 -8 -3 -18 -12 -18h-66c-5 0 -10 3 -12 7l-68 150l-67 -150c-2 -4 -6 -7 -11 -7z" fill="currentColor"/>
</g>
</a>
<a style="color:inherit;" xlink:href="textedit://C:/Users/jwloy/Documents/GitHub/sf005/public/pieces/sf005/notation/InteractiveLoopingLine001.ly:298:15:16">
<g transform="translate(12.2621, 51.2948)">
<path transform="scale(0.0040, -0.0040)" d="M218 136c55 0 108 -28 108 -89c0 -71 -55 -121 -102 -149c-35 -21 -75 -34 -116 -34c-55 0 -108 28 -108 89c0 71 55 121 102 149c35 21 75 34 116 34z" fill="currentColor"/>
</g>
</a>
<g transform="translate(6.8305, 43.0263)">
<path transform="scale(0.0025, -0.0025)" d="M198 -327c-13 0 -24 11 -24 24v129l-73 -29v-148c0 -13 -11 -24 -24 -24s-23 11 -23 24v129l-10 -4c-4 -2 -8 -2 -12 -2c-17 0 -32 14 -32 32v46c0 13 8 24 20 29l34 14v148l-10 -4c-4 -2 -8 -3 -12 -3c-17 0 -32 14 -32 32v46c0 13 8 25 20 30l34 13v148
c0 13 10 24 23 24s24 -11 24 -24v-129l73 29v148c0 13 11 24 24 24s23 -11 23 -24v-129l10 4c4 2 8 2 12 2c17 0 32 -14 32 -32v-46c0 -13 -8 -24 -20 -29l-34 -14v-148l10 4c4 2 8 3 12 3c17 0 32 -14 32 -32v-46c0 -13 -8 -25 -20 -30l-34 -13v-148c0 -13 -10 -24 -23 -24
zM101 59v-148l73 30v148z" fill="currentColor"/>
</g>
<g transform="translate(7.9385, 41.5263)">
<rect x="-0.0650" y="1.6360" width="0.1300" height="3.8640" ry="0.0400" fill="currentColor"/>
</g>
<a style="color:inherit;" xlink:href="textedit://C:/Users/jwloy/Documents/GitHub/sf005/public/pieces/sf005/notation/InteractiveLoopingLine001.ly:102:16:17">
<g transform="translate(7.8735, 43.0263)">
<path transform="scale(0.0032, -0.0032)" d="M212 138c59 0 113 -31 113 -95c0 -71 -52 -120 -99 -148c-34 -21 -73 -33 -113 -33c-59 0 -113 31 -113 95c0 71 53 120 100 148c34 21 72 33 112 33z" fill="currentColor"/>
</g>
</a>
<g transform="translate(72.3670, 38.0263)">
<path transform="scale(0.0025, -0.0025)" d="M34 33l-1 -58v-10c0 -21 2 -43 5 -64c41 38 85 80 85 136c0 31 -13 63 -40 63c-31 0 -48 -33 -49 -67zM32 441l-8 -333c25 27 60 42 97 42c49 0 79 -52 79 -106c0 -76 -78 -117 -133 -169c-19 -18 -27 -52 -55 -52c-17 0 -30 17 -30 35l-14 583c10 6 21 9 32 9
s22 -3 32 -9z" fill="currentColor"/>
</g>
<a style="color:inherit;" xlink:href="textedit://C:/Users/jwloy/Documents/GitHub/sf005/public/pieces/sf005/notation/InteractiveLoopingLine001.ly:105:8:9">
<g transform="translate(78.2003, 41.5263)">
<path transform="scale(0.0040, -0.0040)" d="M103 135c9 2 17 3 26 3c33 0 70 -11 105 -36c21 -15 46 -23 66 -23c21 0 39 9 44 29c2 6 6 9 11 9c6 0 12 -5 12 -12c0 -67 -90 -105 -138 -105c-36 0 -71 14 -96 44c-13 16 -31 22 -48 22c-30 0 -59 -20 -62 -55c-1 -7 -6 -11 -11 -11c-6 0 -12 4 -12 11
c0 175 235 165 235 344c0 60 -18 122 -70 122c-26 0 -51 -14 -51 -37c0 -27 35 -41 35 -68c0 -38 -30 -69 -68 -69s-69 31 -69 69c0 76 72 128 153 128c96 0 187 -56 187 -145c0 -153 -151 -159 -249 -220z" fill="currentColor"/>
</g>
<g transform="translate(78.1320, 43.5749)">
<path transform="scale(0.0040, -0.0040)" d="M196 117h117c0 -48 27 -94 72 -94c8 0 12 -5 12 -11s-4 -12 -12 -12c-44 0 -87 13 -131 13s-87 -13 -131 -13c-8 0 -12 6 -12 12s4 11 12 11c45 0 73 46 73 94zM204 307c22 14 44 29 60 50c11 15 19 33 27 50c2 4 5 6 9 6c6 0 13 -5 13 -14v-245h72c10 0 15 -7 15 -14
s-5 -15 -15 -15h-72v-8h-117v8h-167c-23 0 -31 14 -31 23c0 3 1 5 2 6c80 93 138 207 138 330c0 10 7 19 16 16c23 -7 47 -13 71 -13s48 6 71 13c14 4 23 -9 17 -16l-284 -330h167v131c0 8 1 17 8 22z" fill="currentColor"/>
</g>
</a>
<a style="color:inherit;" xlink:href="textedit://C:/Users/jwloy/Documents/GitHub/sf005/public/pieces/sf005/notation/InteractiveLoopingLine001.ly:299:8:9">
<g transform="translate(78.2003, 51.2948)">
<path transform="scale(0.0040, -0.0040)" d="M103 135c9 2 17 3 26 3c33 0 70 -11 105 -36c21 -15 46 -23 66 -23c21 0 39 9 44 29c2 6 6 9 11 9c6 0 12 -5 12 -12c0 -67 -90 -105 -138 -105c-36 0 -71 14 -96 44c-13 16 -31 22 -48 22c-30 0 -59 -20 -62 -55c-1 -7 -6 -11 -11 -11c-6 0 -12 4 -12 11
c0 175 235 165 235 344c0 60 -18 122 -70 122c-26 0 -51 -14 -51 -37c0 -27 35 -41 35 -68c0 -38 -30 -69 -68 -69s-69 31 -69 69c0 76 72 128 153 128c96 0 187 -56 187 -145c0 -153 -151 -159 -249 -220z" fill="currentColor"/>
</g>
<g transform="translate(78.1320, 53.3434)">
<path transform="scale(0.0040, -0.0040)" d="M196 117h117c0 -48 27 -94 72 -94c8 0 12 -5 12 -11s-4 -12 -12 -12c-44 0 -87 13 -131 13s-87 -13 -131 -13c-8 0 -12 6 -12 12s4 11 12 11c45 0 73 46 73 94zM204 307c22 14 44 29 60 50c11 15 19 33 27 50c2 4 5 6 9 6c6 0 13 -5 13 -14v-245h72c10 0 15 -7 15 -14
s-5 -15 -15 -15h-72v-8h-117v8h-167c-23 0 -31 14 -31 23c0 3 1 5 2 6c80 93 138 207 138 330c0 10 7 19 16 16c23 -7 47 -13 71 -13s48 6 71 13c14 4 23 -9 17 -16l-284 -330h167v131c0 8 1 17 8 22z" fill="currentColor"/>
</g>
</a>
<g transform="translate(58.6336, 54.2948)">
<polygon stroke-linejoin="round" stroke-linecap="round" stroke-width="0.0800" fill="currentColor" stroke="currentColor" points="12.3862 -0.2000 12.3862 0.2000 0.0400 0.2000 0.0400 -0.2000"/>
</g>
<g transform="translate(70.9298, 44.9063)">
<polygon stroke-linejoin="round" stroke-linecap="round" stroke-width="0.0800" fill="currentColor" stroke="currentColor" points="1.1250 -0.2000 1.1250 0.2000 0.0400 0.2000 0.0400 -0.2000"/>
</g>
<g transform="translate(64.7454, 44.9063)">
<polygon stroke-linejoin="round" stroke-linecap="round" stroke-width="0.0800" fill="currentColor" stroke="currentColor" points="1.1250 -0.2000 1.1250 0.2000 0.0400 0.2000 0.0400 -0.2000"/>
</g>
<g transform="translate(47.2658, 44.9063)">
<polygon stroke-linejoin="round" stroke-linecap="round" stroke-width="0.0800" fill="currentColor" stroke="currentColor" points="1.1250 -0.2000 1.1250 0.2000 0.0400 0.2000 0.0400 -0.2000"/>
</g>
<g transform="translate(63.4398, 45.7163)">
<polygon stroke-linejoin="round" stroke-linecap="round" stroke-width="0.0800" fill="currentColor" stroke="currentColor" points="9.8712 -0.2000 9.8712 0.2000 0.0400 0.2000 0.0400 -0.2000"/>
</g>
<g transform="translate(54.6626, 45.7163)">
<polygon stroke-linejoin="round" stroke-linecap="round" stroke-width="0.0800" fill="currentColor" stroke="currentColor" points="2.0130 -0.2000 2.0130 0.2000 0.0400 0.2000 0.0400 -0.2000"/>
</g>
<g transform="translate(47.2658, 45.7163)">
<polygon stroke-linejoin="round" stroke-linecap="round" stroke-width="0.0800" fill="currentColor" stroke="currentColor" points="1.1250 -0.2000 1.1250 0.2000 0.0400 0.2000 0.0400 -0.2000"/>
</g>
<g transform="translate(47.2658, 46.5263)">
<polygon stroke-linejoin="round" stroke-linecap="round" stroke-width="0.0800" fill="currentColor" stroke="currentColor" points="26.0452 -0.2000 26.0452 0.2000 0.0400 0.2000 0.0400 -0.2000"/>
</g>
<g transform="translate(41.3101, 54.2948)">
<polygon stroke-linejoin="round" stroke-linecap="round" stroke-width="0.0800" fill="currentColor" stroke="currentColor" points="11.9796 -0.2000 11.9796 0.2000 0.0400 0.2000 0.0400 -0.2000"/>
</g>
<a style="color:inherit;" xlink:href="textedit://C:/Users/jwloy/Documents/GitHub/sf005/public/pieces/sf005/notation/InteractiveLoopingLine001.ly:102:72:73">
<g transform="translate(58.6723, 48.4297)">
<text font-family="serif" font-style="italic" font-size="1.7461" text-anchor="start" fill="currentColor">
<tspan>5</tspan>
</text>
</g>
</a>
<a style="color:inherit;" xlink:href="textedit://C:/Users/jwloy/Documents/GitHub/sf005/public/pieces/sf005/notation/InteractiveLoopingLine001.ly:102:72:73">
<g transform="translate(54.6626, 47.8663)">
<line stroke-linejoin="round" stroke-linecap="round" stroke-width="0.1600" stroke="currentColor" x1="9.1072" y1="-0.0000" x2="9.1072" y2="-0.7000"/>
</g>
<g transform="translate(54.6626, 47.8663)">
<line stroke-linejoin="round" stroke-linecap="round" stroke-width="0.1600" stroke="currentColor" x1="-0.2000" y1="-0.0000" x2="-0.2000" y2="-0.7000"/>
</g>
<g transform="translate(54.6626, 47.8663)">
<line stroke-linejoin="round" stroke-linecap="round" stroke-width="0.1600" stroke="currentColor" x1="9.1072" y1="-0.0000" x2="5.4975" y2="-0.0000"/>
</g>
<g transform="translate(54.6626, 47.8663)">
<line stroke-linejoin="round" stroke-linecap="round" stroke-width="0.1600" stroke="currentColor" x1="-0.2000" y1="-0.0000" x2="3.6098" y2="-0.0000"/>
</g>
</a>
<g transform="translate(23.6516, 54.2948)">
<polygon stroke-linejoin="round" stroke-linecap="round" stroke-width="0.0800" fill="currentColor" stroke="currentColor" points="11.8971 -0.2000 11.8971 0.2000 0.0400 0.2000 0.0400 -0.2000"/>
</g>
<g transform="translate(6.3005, 54.2948)">
<polygon stroke-linejoin="round" stroke-linecap="round" stroke-width="0.0800" fill="currentColor" stroke="currentColor" points="11.4854 -0.2000 11.4854 0.2000 0.0400 0.2000 0.0400 -0.2000"/>
</g>
<g transform="translate(12.6899, 45.4063)">
<polygon stroke-linejoin="round" stroke-linecap="round" stroke-width="0.0800" fill="currentColor" stroke="currentColor" points="1.1250 -0.2000 1.1250 0.2000 0.0400 0.2000 0.0400 -0.2000"/>
</g>
<g transform="translate(6.3005, 45.4063)">
<polygon stroke-linejoin="round" stroke-linecap="round" stroke-width="0.0800" fill="currentColor" stroke="currentColor" points="1.1250 -0.2000 1.1250 0.2000 0.0400 0.2000 0.0400 -0.2000"/>
</g>
<g transform="translate(12.6899, 46.2163)">
<polygon stroke-linejoin="round" stroke-linecap="round" stroke-width="0.0800" fill="currentColor" stroke="currentColor" points="1.1250 -0.2000 1.1250 0.2000 0.0400 0.2000 0.0400 -0.2000"/>
</g>
<g transform="translate(6.3005, 46.2163)">
<polygon stroke-linejoin="round" stroke-linecap="round" stroke-width="0.0800" fill="currentColor" stroke="currentColor" points="1.1250 -0.2000 1.1250 0.2000 0.0400 0.2000 0.0400 -0.2000"/>
</g>
<g transform="translate(6.3005, 47.0263)">
<polygon stroke-linejoin="round" stroke-linecap="round" stroke-width="0.0800" fill="currentColor" stroke="currentColor" points="8.5597 -0.2000 8.5597 0.2000 0.0400 0.2000 0.0400 -0.2000"/>
</g>
<a style="color:inherit;" xlink:href="textedit://C:/Users/jwloy/Documents/GitHub/sf005/public/pieces/sf005/notation/InteractiveLoopingLine001.ly:102:35:36">
<g transform="translate(31.1268, 48.5401)">
<text font-family="serif" font-style="italic" font-size="1.7461" text-anchor="start" fill="currentColor">
<tspan>3</tspan>
</text>
</g>
</a>
<g transform="translate(70.9948, 41.5263)">
<rect x="-0.0650" y="-2.3640" width="0.1300" height="7.3640" ry="0.0400" fill="currentColor"/>
</g>
<g transform="translate(65.8454, 41.5263)">
<rect x="-0.0650" y="-0.3640" width="0.1300" height="5.3640" ry="0.0400" fill="currentColor"/>
</g>
<a style="color:inherit;" xlink:href="textedit://C:/Users/jwloy/Documents/GitHub/sf005/public/pieces/sf005/notation/InteractiveLoopingLine001.ly:102:112:113">
<g transform="translate(68.1716, 40.5263)">
<path transform="scale(0.0032, -0.0032)" d="M212 138c59 0 113 -31 113 -95c0 -71 -52 -120 -99 -148c-34 -21 -73 -33 -113 -33c-59 0 -113 31 -113 95c0 71 53 120 100 148c34 21 72 33 112 33z" fill="currentColor"/>
</g>
</a>
<g transform="translate(68.2366, 41.5263)">
<rect x="-0.0650" y="-0.8640" width="0.1300" height="5.8640" ry="0.0400" fill="currentColor"/>
</g>
<g transform="translate(67.3176, 40.5263)">
<path transform="scale(0.0025, -0.0025)" d="M34 33l-1 -58v-10c0 -21 2 -43 5 -64c41 38 85 80 85 136c0 31 -13 63 -40 63c-31 0 -48 -33 -49 -67zM32 441l-8 -333c25 27 60 42 97 42c49 0 79 -52 79 -106c0 -76 -78 -117 -133 -169c-19 -18 -27 -52 -55 -52c-17 0 -30 17 -30 35l-14 583c10 6 21 9 32 9
s22 -3 32 -9z" fill="currentColor"/>
</g>
<a style="color:inherit;" xlink:href="textedit://C:/Users/jwloy/Documents/GitHub/sf005/public/pieces/sf005/notation/InteractiveLoopingLine001.ly:102:121:122">
<g transform="translate(70.9298, 39.0263)">
<path transform="scale(0.0032, -0.0032)" d="M212 138c59 0 113 -31 113 -95c0 -71 -52 -120 -99 -148c-34 -21 -73 -33 -113 -33c-59 0 -113 31 -113 95c0 71 53 120 100 148c34 21 72 33 112 33z" fill="currentColor"/>
</g>
</a>
<a style="color:inherit;" xlink:href="textedit://C:/Users/jwloy/Documents/GitHub/sf005/public/pieces/sf005/notation/InteractiveLoopingLine001.ly:298:51:52">
<g transform="translate(70.9298, 51.2948)">
<path transform="scale(0.0040, -0.0040)" d="M218 136c55 0 108 -28 108 -89c0 -71 -55 -121 -102 -149c-35 -21 -75 -34 -116 -34c-55 0 -108 28 -108 89c0 71 55 121 102 149c35 21 75 34 116 34z" fill="currentColor"/>
</g>
</a>
<a style="color:inherit;" xlink:href="textedit://C:/Users/jwloy/Documents/GitHub/sf005/public/pieces/sf005/notation/InteractiveLoopingLine001.ly:102:106:107">
<g transform="translate(65.7804, 41.0263)">
<path transform="scale(0.0032, -0.0032)" d="M212 138c59 0 113 -31 113 -95c0 -71 -52 -120 -99 -148c-34 -21 -73 -33 -113 -33c-59 0 -113 31 -113 95c0 71 53 120 100 148c34 21 72 33 112 33z" fill="currentColor"/>
</g>
</a>
<g transform="translate(69.8868, 39.0263)">
<path transform="scale(0.0025, -0.0025)" d="M198 -327c-13 0 -24 11 -24 24v129l-73 -29v-148c0 -13 -11 -24 -24 -24s-23 11 -23 24v129l-10 -4c-4 -2 -8 -2 -12 -2c-17 0 -32 14 -32 32v46c0 13 8 24 20 29l34 14v148l-10 -4c-4 -2 -8 -3 -12 -3c-17 0 -32 14 -32 32v46c0 13 8 25 20 30l34 13v148
c0 13 10 24 23 24s24 -11 24 -24v-129l73 29v148c0 13 11 24 24 24s23 -11 23 -24v-129l10 4c4 2 8 2 12 2c17 0 32 -14 32 -32v-46c0 -13 -8 -24 -20 -29l-34 -14v-148l10 4c4 2 8 3 12 3c17 0 32 -14 32 -32v-46c0 -13 -8 -25 -20 -30l-34 -13v-148c0 -13 -10 -24 -23 -24
zM101 59v-148l73 30v148z" fill="currentColor"/>
</g>
<g transform="translate(70.9948, 51.2948)">
<rect x="-0.0650" y="0.1861" width="0.1300" height="2.8139" ry="0.0400" fill="currentColor"/>
</g>
<a style="color:inherit;" xlink:href="textedit://C:/Users/jwloy/Documents/GitHub/sf005/public/pieces/sf005/notation/InteractiveLoopingLine001.ly:102:129:130">
<g transform="translate(73.2210, 38.0263)">
<path transform="scale(0.0032, -0.0032)" d="M212 138c59 0 113 -31 113 -95c0 -71 -52 -120 -99 -148c-34 -21 -73 -33 -113 -33c-59 0 -113 31 -113 95c0 71 53 120 100 148c34 21 72 33 112 33z" fill="currentColor"/>
</g>
</a>
<g transform="translate(74.7035, 38.0263)">
<path transform="scale(0.0040, -0.0040)" d="M0 0c0 31 25 56 56 56s56 -25 56 -56s-25 -56 -56 -56s-56 25 -56 56z" fill="currentColor"/>
</g>
<g transform="translate(73.2860, 41.5263)">
<rect x="-0.0650" y="-3.3640" width="0.1300" height="8.3640" ry="0.0400" fill="currentColor"/>
</g>
<a style="color:inherit;" xlink:href="textedit://C:/Users/jwloy/Documents/GitHub/sf005/public/pieces/sf005/notation/InteractiveLoopingLine001.ly:102:67:68">
<g transform="translate(48.8111, 40.5263)">
<path transform="scale(0.0032, -0.0032)" d="M212 138c59 0 113 -31 113 -95c0 -71 -52 -120 -99 -148c-34 -21 -73 -33 -113 -33c-59 0 -113 31 -113 95c0 71 53 120 100 148c34 21 72 33 112 33z" fill="currentColor"/>
</g>
</a>
<g transform="translate(48.8761, 41.5263)">
<rect x="-0.0650" y="-0.8640" width="0.1300" height="5.8640" ry="0.0400" fill="currentColor"/>
</g>
<a style="color:inherit;" xlink:href="textedit://C:/Users/jwloy/Documents/GitHub/sf005/public/pieces/sf005/notation/InteractiveLoopingLine001.ly:298:40:41">
<g transform="translate(53.1997, 51.2948)">
<path transform="scale(0.0040, -0.0040)" d="M218 136c55 0 108 -28 108 -89c0 -71 -55 -121 -102 -149c-35 -21 -75 -34 -116 -34c-55 0 -108 28 -108 89c0 71 55 121 102 149c35 21 75 34 116 34z" fill="currentColor"/>
</g>
</a>
<g transform="translate(53.2647, 51.2948)">
<rect x="-0.0650" y="0.1861" width="0.1300" height="2.8139" ry="0.0400" fill="currentColor"/>
</g>
<a style="color:inherit;" xlink:href="textedit://C:/Users/jwloy/Documents/GitHub/sf005/public/pieces/sf005/notation/InteractiveLoopingLine001.ly:102:85:86">
<g transform="translate(54.6626, 39.5263)">
<path transform="scale(0.0032, -0.0032)" d="M212 138c59 0 113 -31 113 -95c0 -71 -52 -120 -99 -148c-34 -21 -73 -33 -113 -33c-59 0 -113 31 -113 95c0 71 53 120 100 148c34 21 72 33 112 33z" fill="currentColor"/>
</g>
</a>
<g transform="translate(54.7276, 41.5263)">
<rect x="-0.0650" y="-1.8640" width="0.1300" height="6.8640" ry="0.0400" fill="currentColor"/>
</g>
<g transform="translate(47.3308, 51.2948)">
<rect x="-0.0650" y="0.1861" width="0.1300" height="2.8139" ry="0.0400" fill="currentColor"/>
</g>
<g transform="translate(46.4748, 41.5263)">
<path transform="scale(0.0025, -0.0025)" d="M-9 375c9 5 19 8 29 8s19 -3 28 -8l-3 -202l97 26c2 0 3 1 5 1c11 0 20 -9 20 -20l8 -555c-9 -5 -18 -8 -28 -8s-20 3 -29 8l3 202l-96 -26c-2 0 -3 -1 -5 -1c-11 0 -20 9 -20 20zM126 108l-82 -22l-3 -194l82 22z" fill="currentColor"/>
</g>
<g transform="translate(47.3308, 41.5263)">
<rect x="-0.0650" y="0.1360" width="0.1300" height="4.8640" ry="0.0400" fill="currentColor"/>
</g>
<a style="color:inherit;" xlink:href="textedit://C:/Users/jwloy/Documents/GitHub/sf005/public/pieces/sf005/notation/InteractiveLoopingLine001.ly:298:37:38">
<g transform="translate(47.2658, 51.2948)">
<path transform="scale(0.0040, -0.0040)" d="M218 136c55 0 108 -28 108 -89c0 -71 -55 -121 -102 -149c-35 -21 -75 -34 -116 -34c-55 0 -108 28 -108 89c0 71 55 121 102 149c35 21 75 34 116 34z" fill="currentColor"/>
</g>
</a>
<a style="color:inherit;" xlink:href="textedit://C:/Users/jwloy/Documents/GitHub/sf005/public/pieces/sf005/notation/InteractiveLoopingLine001.ly:102:62:63">
<g transform="translate(47.2658, 41.5263)">
<path transform="scale(0.0032, -0.0032)" d="M212 138c59 0 113 -31 113 -95c0 -71 -52 -120 -99 -148c-34 -21 -73 -33 -113 -33c-59 0 -113 31 -113 95c0 71 53 120 100 148c34 21 72 33 112 33z" fill="currentColor"/>
</g>
</a>
<a style="color:inherit;" xlink:href="textedit://C:/Users/jwloy/Documents/GitHub/sf005/public/pieces/sf005/notation/InteractiveLoopingLine001.ly:101:8:9">
<g transform="translate(1.5691, 41.5263)">
<g>
<path transform="scale(0.0040, -0.0040)" d="M175 487c18 0 58 31 58 -3v-367c0 -48 28 -94 73 -94c8 0 12 -5 12 -11s-4 -12 -12 -12c-44 0 -87 13 -131 13s-87 -13 -131 -13c-8 0 -12 6 -12 12s4 11 12 11c45 0 73 46 73 94v245c0 12 -9 19 -17 19c-4 0 -8 -3 -10 -7l-64 -136c-3 -6 -7 -9 -12 -9
c-8 0 -16 6 -16 14c0 2 1 5 2 7l117 250c3 6 10 3 16 0c13 -6 27 -13 42 -13z" fill="currentColor"/>

<path transform="translate(1.2633, 0.0000) scale(0.0040, -0.0040)" d="M103 135c9 2 17 3 26 3c33 0 70 -11 105 -36c21 -15 46 -23 66 -23c21 0 39 9 44 29c2 6 6 9 11 9c6 0 12 -5 12 -12c0 -67 -90 -105 -138 -105c-36 0 -71 14 -96 44c-13 16 -31 22 -48 22c-30 0 -59 -20 -62 -55c-1 -7 -6 -11 -11 -11c-6 0 -12 4 -12 11
c0 175 235 165 235 344c0 60 -18 122 -70 122c-26 0 -51 -14 -51 -37c0 -27 35 -41 35 -68c0 -38 -30 -69 -68 -69s-69 31 -69 69c0 76 72 128 153 128c96 0 187 -56 187 -145c0 -153 -151 -159 -249 -220z" fill="currentColor"/>
</g>
</g>
<g transform="translate(2.2007, 43.5749)">
<path transform="scale(0.0040, -0.0040)" d="M259 288c27 29 49 62 49 102c0 55 -57 87 -117 87c-47 0 -75 -36 -75 -71c0 -20 10 -40 30 -52zM289 271c55 -31 83 -79 83 -127c0 -73 -66 -144 -189 -144c-94 0 -183 54 -183 140c0 50 39 85 76 120c-41 28 -61 67 -61 106c0 68 61 134 176 134c81 0 161 -38 161 -110
c0 -47 -30 -85 -63 -119zM106 242c-33 -29 -62 -59 -62 -102c0 -69 66 -117 139 -117c54 0 86 42 86 83c0 24 -10 48 -35 62z" fill="currentColor"/>
</g>
</a>
<a style="color:inherit;" xlink:href="textedit://C:/Users/jwloy/Documents/GitHub/sf005/public/pieces/sf005/notation/InteractiveLoopingLine001.ly:297:8:9">
<g transform="translate(1.5691, 51.2948)">
<g>
<path transform="scale(0.0040, -0.0040)" d="M175 487c18 0 58 31 58 -3v-367c0 -48 28 -94 73 -94c8 0 12 -5 12 -11s-4 -12 -12 -12c-44 0 -87 13 -131 13s-87 -13 -131 -13c-8 0 -12 6 -12 12s4 11 12 11c45 0 73 46 73 94v245c0 12 -9 19 -17 19c-4 0 -8 -3 -10 -7l-64 -136c-3 -6 -7 -9 -12 -9
c-8 0 -16 6 -16 14c0 2 1 5 2 7l117 250c3 6 10 3 16 0c13 -6 27 -13 42 -13z" fill="currentColor"/>

<path transform="translate(1.2633, 0.0000) scale(0.0040, -0.0040)" d="M103 135c9 2 17 3 26 3c33 0 70 -11 105 -36c21 -15 46 -23 66 -23c21 0 39 9 44 29c2 6 6 9 11 9c6 0 12 -5 12 -12c0 -67 -90 -105 -138 -105c-36 0 -71 14 -96 44c-13 16 -31 22 -48 22c-30 0 -59 -20 -62 -55c-1 -7 -6 -11 -11 -11c-6 0 -12 4 -12 11
c0 175 235 165 235 344c0 60 -18 122 -70 122c-26 0 -51 -14 -51 -37c0 -27 35 -41 35 -68c0 -38 -30 -69 -68 -69s-69 31 -69 69c0 76 72 128 153 128c96 0 187 -56 187 -145c0 -153 -151 -159 -249 -220z" fill="currentColor"/>
</g>
</g>
<g transform="translate(2.2007, 53.3434)">
<path transform="scale(0.0040, -0.0040)" d="M259 288c27 29 49 62 49 102c0 55 -57 87 -117 87c-47 0 -75 -36 -75 -71c0 -20 10 -40 30 -52zM289 271c55 -31 83 -79 83 -127c0 -73 -66 -144 -189 -144c-94 0 -183 54 -183 140c0 50 39 85 76 120c-41 28 -61 67 -61 106c0 68 61 134 176 134c81 0 161 -38 161 -110
c0 -47 -30 -85 -63 -119zM106 242c-33 -29 -62 -59 -62 -102c0 -69 66 -117 139 -117c54 0 86 42 86 83c0 24 -10 48 -35 62z" fill="currentColor"/>
</g>
</a>
<g transform="translate(0.5091, 45.4106)">
<rect x="0.0000" y="-5.9342" width="0.1600" height="11.8685" ry="0.0500" fill="currentColor"/>
</g>
<g transform="translate(-0.7409, 39.2513)">
<path transform="scale(0.0040, -0.0040)" d="M0 -56v87c0 14 11 25 25 25h50c159 0 271 136 362 270c11 17 37 -1 26 -18c-99 -144 -215 -364 -388 -364h-75z" fill="currentColor"/>
</g>
<g transform="translate(-0.7409, 51.5698)">
<path transform="scale(0.0040, -0.0040)" d="M0 56h75c173 0 289 -220 388 -364c11 -17 -15 -35 -26 -18c-91 134 -203 270 -362 270h-50c-14 0 -25 11 -25 25v87z" fill="currentColor"/>
</g>
<g transform="translate(-0.7409, 45.4106)">
<rect x="0.0000" y="-5.9792" width="0.4500" height="11.9585" ry="0.0000" fill="currentColor"/>
</g>
<a style="color:inherit;" xlink:href="textedit://C:/Users/jwloy/Documents/GitHub/sf005/public/pieces/sf005/notation/InteractiveLoopingLine001.ly:298:43:44">
<g transform="translate(58.6336, 51.2948)">
<path transform="scale(0.0040, -0.0040)" d="M218 136c55 0 108 -28 108 -89c0 -71 -55 -121 -102 -149c-35 -21 -75 -34 -116 -34c-55 0 -108 28 -108 89c0 71 55 121 102 149c35 21 75 34 116 34z" fill="currentColor"/>
</g>
</a>
<g transform="translate(56.6506, 41.5263)">
<rect x="-0.0650" y="0.6360" width="0.1300" height="4.3640" ry="0.0400" fill="currentColor"/>
</g>
<a style="color:inherit;" xlink:href="textedit://C:/Users/jwloy/Documents/GitHub/sf005/public/pieces/sf005/notation/InteractiveLoopingLine001.ly:102:91:92">
<g transform="translate(56.5856, 42.0263)">
<path transform="scale(0.0032, -0.0032)" d="M212 138c59 0 113 -31 113 -95c0 -71 -52 -120 -99 -148c-34 -21 -73 -33 -113 -33c-59 0 -113 31 -113 95c0 71 53 120 100 148c34 21 72 33 112 33z" fill="currentColor"/>
</g>
</a>
<g transform="translate(31.6227, 41.5263)">
<rect x="-0.0650" y="-1.8640" width="0.1300" height="5.3640" ry="0.0400" fill="currentColor"/>
</g>
<a style="color:inherit;" xlink:href="textedit://C:/Users/jwloy/Documents/GitHub/sf005/public/pieces/sf005/notation/InteractiveLoopingLine001.ly:102:52:53">
<g transform="translate(31.5577, 39.5263)">
<path transform="scale(0.0032, -0.0032)" d="M212 138c59 0 113 -31 113 -95c0 -71 -52 -120 -99 -148c-34 -21 -73 -33 -113 -33c-59 0 -113 31 -113 95c0 71 53 120 100 148c34 21 72 33 112 33z" fill="currentColor"/>
</g>
</a>
<a style="color:inherit;" xlink:href="textedit://C:/Users/jwloy/Documents/GitHub/sf005/public/pieces/sf005/notation/InteractiveLoopingLine001.ly:102:48:49">
<g transform="translate(23.6516, 44.0263)">
<path transform="scale(0.0032, -0.0032)" d="M212 138c59 0 113 -31 113 -95c0 -71 -52 -120 -99 -148c-34 -21 -73 -33 -113 -33c-59 0 -113 31 -113 95c0 71 53 120 100 148c34 21 72 33 112 33z" fill="currentColor"/>
</g>
</a>
<a style="color:inherit;" xlink:href="textedit://C:/Users/jwloy/Documents/GitHub/sf005/public/pieces/sf005/notation/InteractiveLoopingLine001.ly:298:29:30">
<g transform="translate(35.4587, 51.2948)">
<path transform="scale(0.0040, -0.0040)" d="M218 136c55 0 108 -28 108 -89c0 -71 -55 -121 -102 -149c-35 -21 -75 -34 -116 -34c-55 0 -108 28 -108 89c0 71 55 121 102 149c35 21 75 34 116 34z" fill="currentColor"/>
</g>
</a>
<a style="color:inherit;" xlink:href="textedit://C:/Users/jwloy/Documents/GitHub/sf005/public/pieces/sf005/notation/InteractiveLoopingLine001.ly:298:23:24">
<g transform="translate(23.6516, 51.2948)">
<path transform="scale(0.0040, -0.0040)" d="M218 136c55 0 108 -28 108 -89c0 -71 -55 -121 -102 -149c-35 -21 -75 -34 -116 -34c-55 0 -108 28 -108 89c0 71 55 121 102 149c35 21 75 34 116 34z" fill="currentColor"/>
</g>
</a>
<g transform="translate(29.6723, 51.2948)">
<rect x="-0.0650" y="0.1861" width="0.1300" height="2.8139" ry="0.0400" fill="currentColor"/>
</g>
<a style="color:inherit;" xlink:href="textedit://C:/Users/jwloy/Documents/GitHub/sf005/public/pieces/sf005/notation/InteractiveLoopingLine001.ly:298:26:27">
<g transform="translate(29.6073, 51.2948)">
<path transform="scale(0.0040, -0.0040)" d="M218 136c55 0 108 -28 108 -89c0 -71 -55 -121 -102 -149c-35 -21 -75 -34 -116 -34c-55 0 -108 28 -108 89c0 71 55 121 102 149c35 21 75 34 116 34z" fill="currentColor"/>
</g>
</a>
<g transform="translate(24.6191, 41.5263)">
<rect x="-0.0650" y="-3.0000" width="0.1300" height="5.3640" ry="0.0400" fill="currentColor"/>
</g>
<g transform="translate(23.7166, 51.2948)">
<rect x="-0.0650" y="0.1861" width="0.1300" height="2.8139" ry="0.0400" fill="currentColor"/>
</g>
<g transform="translate(39.4247, 41.5263)">
<rect x="-0.0650" y="0.1360" width="0.1300" height="5.1973" ry="0.0400" fill="currentColor"/>
</g>
<g transform="translate(41.3751, 51.2948)">
<rect x="-0.0650" y="0.1861" width="0.1300" height="2.8139" ry="0.0400" fill="currentColor"/>
</g>
<a style="color:inherit;" xlink:href="textedit://C:/Users/jwloy/Documents/GitHub/sf005/public/pieces/sf005/notation/InteractiveLoopingLine001.ly:298:34:35">
<g transform="translate(41.3101, 51.2948)">
<path transform="scale(0.0040, -0.0040)" d="M218 136c55 0 108 -28 108 -89c0 -71 -55 -121 -102 -149c-35 -21 -75 -34 -116 -34c-55 0 -108 28 -108 89c0 71 55 121 102 149c35 21 75 34 116 34z" fill="currentColor"/>
</g>
</a>
<g transform="translate(38.5057, 41.5263)">
<path transform="scale(0.0025, -0.0025)" d="M34 33l-1 -58v-10c0 -21 2 -43 5 -64c41 38 85 80 85 136c0 31 -13 63 -40 63c-31 0 -48 -33 -49 -67zM32 441l-8 -333c25 27 60 42 97 42c49 0 79 -52 79 -106c0 -76 -78 -117 -133 -169c-19 -18 -27 -52 -55 -52c-17 0 -30 17 -30 35l-14 583c10 6 21 9 32 9
s22 -3 32 -9z" fill="currentColor"/>
</g>
<a style="color:inherit;" xlink:href="textedit://C:/Users/jwloy/Documents/GitHub/sf005/public/pieces/sf005/notation/InteractiveLoopingLine001.ly:298:31:32">
<g transform="translate(36.1108, 50.5498)">
<path transform="scale(0.0040, -0.0040)" d="M-112 0c-9 0 -16 10 -12 18l113 250c2 4 6 7 11 7s9 -3 11 -7l113 -250c4 -8 -3 -18 -12 -18h-66c-5 0 -10 3 -12 7l-68 150l-67 -150c-2 -4 -6 -7 -11 -7z" fill="currentColor"/>
</g>
</a>
<a style="color:inherit;" xlink:href="textedit://C:/Users/jwloy/Documents/GitHub/sf005/public/pieces/sf005/notation/InteractiveLoopingLine001.ly:102:56:57">
<g transform="translate(39.3597, 41.5263)">
<path transform="scale(0.0032, -0.0032)" d="M212 138c59 0 113 -31 113 -95c0 -71 -52 -120 -99 -148c-34 -21 -73 -33 -113 -33c-59 0 -113 31 -113 95c0 71 53 120 100 148c34 21 72 33 112 33z" fill="currentColor"/>
</g>
</a>
<a style="color:inherit;" xlink:href="textedit://C:/Users/jwloy/Documents/GitHub/sf005/public/pieces/sf005/notation/InteractiveLoopingLine001.ly:298:20:21">
<g transform="translate(17.6960, 51.2948)">
<path transform="scale(0.0040, -0.0040)" d="M218 136c55 0 108 -28 108 -89c0 -71 -55 -121 -102 -149c-35 -21 -75 -34 -116 -34c-55 0 -108 28 -108 89c0 71 55 121 102 149c35 21 75 34 116 34z" fill="currentColor"/>
</g>
</a>
<g transform="translate(17.7610, 51.2948)">
<rect x="-0.0650" y="0.1861" width="0.1300" height="2.8139" ry="0.0400" fill="currentColor"/>
</g>
<g transform="translate(35.5237, 51.2948)">
<rect x="-0.0650" y="0.1861" width="0.1300" height="2.8139" ry="0.0400" fill="currentColor"/>
</g>
</svg>
