<svg xmlns="http://www.w3.org/2000/svg" xmlns:xlink="http://www.w3.org/1999/xlink" version="1.2" width="142.00mm" height="100.00mm" viewBox="0 0 80.8058 56.9055">
<style type="text/css">
<![CDATA[
tspan { white-space: pre; }
]]>
</style>
<!-- Page: 2/4 -->
<g transform="translate(0.5691, 1.5023)">
<text font-family="serif" font-size="2.2001" text-anchor="start" fill="currentColor">
<tspan>2</tspan>
</text>
</g>
<g transform="translate(0.5691, 11.9323)">
<line stroke-linejoin="round" stroke-linecap="round" stroke-width="0.1000" stroke="currentColor" x1="0.0500" y1="0" x2="79.6177" y2="0"/>
</g>
<g transform="translate(0.5691, 10.9323)">
<line stroke-linejoin="round" stroke-linecap="round" stroke-width="0.1000" stroke="currentColor" x1="0.0500" y1="0" x2="79.6177" y2="0"/>
</g>
<g transform="translate(0.5691, 9.9323)">
<line stroke-linejoin="round" stroke-linecap="round" stroke-width="0.1000" stroke="currentColor" x1="0.0500" y1="0" x2="79.6177" y2="0"/>
</g>
<g transform="translate(0.5691, 8.9323)">
<line stroke-linejoin="round" stroke-linecap="round" stroke-width="0.1000" stroke="currentColor" x1="0.0500" y1="0" x2="79.6177" y2="0"/>
</g>
<g transform="translate(0.5691, 7.9323)">
<line stroke-linejoin="round" stroke-linecap="round" stroke-width="0.1000" stroke="currentColor" x1="0.0500" y1="0" x2="79.6177" y2="0"/>
</g>
<g transform="translate(0.5691, 6.9323)">
<rect x="63.3339" y="-0.1000" width="1.4656" height="0.2000" ry="0.1000" fill="currentColor"/>
</g>
<g transform="translate(0.5691, 12.9323)">
<rect x="15.3949" y="-0.1000" width="1.5487" height="0.2000" ry="0.1000" fill="currentColor"/>
</g>
<g transform="translate(0.5691, 13.9323)">
<rect x="15.3949" y="-0.1000" width="1.5487" height="0.2000" ry="0.1000" fill="currentColor"/>
</g>
<g transform="translate(0.5691, 14.9323)">
<rect x="15.3949" y="-0.1000" width="1.5487" height="0.2000" ry="0.1000" fill="currentColor"/>
</g>
<g transform="translate(0.5691, 12.9323)">
<rect x="5.6114" y="-0.1000" width="1.5487" height="0.2000" ry="0.1000" fill="currentColor"/>
</g>
<g transform="translate(0.5691, 13.9323)">
<rect x="5.6946" y="-0.1000" width="1.4656" height="0.2000" ry="0.1000" fill="currentColor"/>
</g>
<g transform="translate(0.5691, 19.5810)">
<line stroke-linejoin="round" stroke-linecap="round" stroke-width="0.1000" stroke="currentColor" x1="0.0500" y1="0" x2="79.6177" y2="0"/>
</g>
<g transform="translate(77.1920, 2.5023)">
<rect x="0.0000" y="9.4800" width="0.1900" height="6.5987" ry="0.0000" fill="currentColor"/>
</g>
<g transform="translate(77.1920, 19.5810)">
<rect x="0.0000" y="-1.1000" width="0.1900" height="2.1500" ry="0.0000" fill="currentColor"/>
</g>
<g transform="translate(77.1920, 9.9323)">
<rect x="0.0000" y="-2.0000" width="0.1900" height="4.0500" ry="0.0000" fill="currentColor"/>
</g>
<g transform="translate(48.7523, 10.4323)">
<path transform="scale(0.0025, -0.0025)" d="M34 33l-1 -58v-10c0 -21 2 -43 5 -64c41 38 85 80 85 136c0 31 -13 63 -40 63c-31 0 -48 -33 -49 -67zM32 441l-8 -333c25 27 60 42 97 42c49 0 79 -52 79 -106c0 -76 -78 -117 -133 -169c-19 -18 -27 -52 -55 -52c-17 0 -30 17 -30 35l-14 583c10 6 21 9 32 9
s22 -3 32 -9z" fill="currentColor"/>
</g>
<g transform="translate(53.1549, 9.9323)">
<rect x="-0.0650" y="-3.9981" width="0.1300" height="5.3621" ry="0.0400" fill="currentColor"/>
</g>
<a style="color:inherit;" xlink:href="textedit://C:/Users/jwloy/Documents/GitHub/sf005/public/pieces/sf005/notation/InteractiveLoopingLine001.ly:90:68:69">
<g transform="translate(52.1874, 11.4323)">
<path transform="scale(0.0032, -0.0032)" d="M212 138c59 0 113 -31 113 -95c0 -71 -52 -120 -99 -148c-34 -21 -73 -33 -113 -33c-59 0 -113 31 -113 95c0 71 53 120 100 148c34 21 72 33 112 33z" fill="currentColor"/>
</g>
</a>
<g transform="translate(51.0268, 22.9160)">
<path transform="scale(0.0040, -0.0040)" d="M0 0h-16v250h16v-250zM0 0v250c97 59 224 148 224 259c0 57 -15 112 -40 163c-3 16 10 27 23 27c7 0 15 -3 20 -11c25 -56 40 -117 40 -179c0 -203 -267 -306 -267 -509z" fill="currentColor"/>
</g>
<g transform="translate(50.9618, 19.5810)">
<rect x="-0.0650" y="0.1861" width="0.1300" height="3.1889" ry="0.0400" fill="currentColor"/>
</g>
<a style="color:inherit;" xlink:href="textedit://C:/Users/jwloy/Documents/GitHub/sf005/public/pieces/sf005/notation/InteractiveLoopingLine001.ly:289:36:37">
<g transform="translate(51.5489, 18.8360)">
<path transform="scale(0.0040, -0.0040)" d="M-112 0c-9 0 -16 10 -12 18l113 250c2 4 6 7 11 7s9 -3 11 -7l113 -250c4 -8 -3 -18 -12 -18h-66c-5 0 -10 3 -12 7l-68 150l-67 -150c-2 -4 -6 -7 -11 -7z" fill="currentColor"/>
</g>
</a>
<a style="color:inherit;" xlink:href="textedit://C:/Users/jwloy/Documents/GitHub/sf005/public/pieces/sf005/notation/InteractiveLoopingLine001.ly:289:34:35">
<g transform="translate(50.8968, 19.5810)">
<path transform="scale(0.0040, -0.0040)" d="M218 136c55 0 108 -28 108 -89c0 -71 -55 -121 -102 -149c-35 -21 -75 -34 -116 -34c-55 0 -108 28 -108 89c0 71 55 121 102 149c35 21 75 34 116 34z" fill="currentColor"/>
</g>
</a>
<g transform="translate(51.4037, 11.4323)">
<path transform="scale(0.0025, -0.0025)" d="M-9 375c9 5 19 8 29 8s19 -3 28 -8l-3 -202l97 26c2 0 3 1 5 1c11 0 20 -9 20 -20l8 -555c-9 -5 -18 -8 -28 -8s-20 3 -29 8l3 202l-96 -26c-2 0 -3 -1 -5 -1c-11 0 -20 9 -20 20zM126 108l-82 -22l-3 -194l82 22z" fill="currentColor"/>
</g>
<a style="color:inherit;" xlink:href="textedit://C:/Users/jwloy/Documents/GitHub/sf005/public/pieces/sf005/notation/InteractiveLoopingLine001.ly:90:71:72">
<g transform="translate(54.6010, 11.9323)">
<path transform="scale(0.0032, -0.0032)" d="M212 138c59 0 113 -31 113 -95c0 -71 -52 -120 -99 -148c-34 -21 -73 -33 -113 -33c-59 0 -113 31 -113 95c0 71 53 120 100 148c34 21 72 33 112 33z" fill="currentColor"/>
</g>
</a>
<g transform="translate(55.5685, 9.9323)">
<rect x="-0.0650" y="-3.5131" width="0.1300" height="5.3771" ry="0.0400" fill="currentColor"/>
</g>
<a style="color:inherit;" xlink:href="textedit://C:/Users/jwloy/Documents/GitHub/sf005/public/pieces/sf005/notation/InteractiveLoopingLine001.ly:90:76:77">
<g transform="translate(57.0146, 12.4323)">
<path transform="scale(0.0032, -0.0032)" d="M212 138c59 0 113 -31 113 -95c0 -71 -52 -120 -99 -148c-34 -21 -73 -33 -113 -33c-59 0 -113 31 -113 95c0 71 53 120 100 148c34 21 72 33 112 33z" fill="currentColor"/>
</g>
</a>
<a style="color:inherit;" xlink:href="textedit://C:/Users/jwloy/Documents/GitHub/sf005/public/pieces/sf005/notation/InteractiveLoopingLine001.ly:289:39:40">
<g transform="translate(57.0146, 19.5810)">
<path transform="scale(0.0040, -0.0040)" d="M218 136c55 0 108 -28 108 -89c0 -71 -55 -121 -102 -149c-35 -21 -75 -34 -116 -34c-55 0 -108 28 -108 89c0 71 55 121 102 149c35 21 75 34 116 34z" fill="currentColor"/>
</g>
</a>
<g transform="translate(58.4971, 12.4323)">
<path transform="scale(0.0040, -0.0040)" d="M0 0c0 31 25 56 56 56s56 -25 56 -56s-25 -56 -56 -56s-56 25 -56 56z" fill="currentColor"/>
</g>
<g transform="translate(57.9821, 9.9323)">
<rect x="-0.0650" y="-5.0296" width="0.1300" height="7.3937" ry="0.0400" fill="currentColor"/>
</g>
<g transform="translate(17.1246, 7.1223)">
<polygon stroke-linejoin="round" stroke-linecap="round" stroke-width="0.0800" fill="currentColor" stroke="currentColor" points="6.5428 -2.8900 6.5428 -2.4900 0.0400 0.2000 0.0400 -0.2000"/>
</g>
<g transform="translate(22.5424, 5.7184)">
<polygon stroke-linejoin="round" stroke-linecap="round" stroke-width="0.0800" fill="currentColor" stroke="currentColor" points="1.1250 -0.6761 1.1250 -0.2761 0.0400 0.2000 0.0400 -0.2000"/>
</g>
<a style="color:inherit;" xlink:href="textedit://C:/Users/jwloy/Documents/GitHub/sf005/public/pieces/sf005/notation/InteractiveLoopingLine001.ly:90:52:53">
<g transform="translate(44.7790, 8.4323)">
<path transform="scale(0.0032, -0.0032)" d="M212 138c59 0 113 -31 113 -95c0 -71 -52 -120 -99 -148c-34 -21 -73 -33 -113 -33c-59 0 -113 31 -113 95c0 71 53 120 100 148c34 21 72 33 112 33z" fill="currentColor"/>
</g>
</a>
<a style="color:inherit;" xlink:href="textedit://C:/Users/jwloy/Documents/GitHub/sf005/public/pieces/sf005/notation/InteractiveLoopingLine001.ly:289:31:32">
<g transform="translate(44.7790, 19.5810)">
<path transform="scale(0.0040, -0.0040)" d="M218 136c55 0 108 -28 108 -89c0 -71 -55 -121 -102 -149c-35 -21 -75 -34 -116 -34c-55 0 -108 28 -108 89c0 71 55 121 102 149c35 21 75 34 116 34z" fill="currentColor"/>
</g>
</a>
<g transform="translate(45.7465, 9.9323)">
<rect x="-0.0650" y="-5.4869" width="0.1300" height="3.8510" ry="0.0400" fill="currentColor"/>
</g>
<g transform="translate(44.8440, 19.5810)">
<rect x="-0.0650" y="0.1861" width="0.1300" height="3.1889" ry="0.0400" fill="currentColor"/>
</g>
<g transform="translate(44.9090, 22.9160)">
<path transform="scale(0.0040, -0.0040)" d="M0 0h-16v250h16v-250zM0 0v250c97 59 224 148 224 259c0 57 -15 112 -40 163c-3 16 10 27 23 27c7 0 15 -3 20 -11c25 -56 40 -117 40 -179c0 -203 -267 -306 -267 -509z" fill="currentColor"/>
</g>
<a style="color:inherit;" xlink:href="textedit://C:/Users/jwloy/Documents/GitHub/sf005/public/pieces/sf005/notation/InteractiveLoopingLine001.ly:90:58:59">
<g transform="translate(47.1926, 9.9323)">
<path transform="scale(0.0032, -0.0032)" d="M212 138c59 0 113 -31 113 -95c0 -71 -52 -120 -99 -148c-34 -21 -73 -33 -113 -33c-59 0 -113 31 -113 95c0 71 53 120 100 148c34 21 72 33 112 33z" fill="currentColor"/>
</g>
</a>
<g transform="translate(48.1601, 9.9323)">
<rect x="-0.0650" y="-5.0019" width="0.1300" height="4.8659" ry="0.0400" fill="currentColor"/>
</g>
<g transform="translate(46.3387, 9.9323)">
<path transform="scale(0.0025, -0.0025)" d="M34 33l-1 -58v-10c0 -21 2 -43 5 -64c41 38 85 80 85 136c0 31 -13 63 -40 63c-31 0 -48 -33 -49 -67zM32 441l-8 -333c25 27 60 42 97 42c49 0 79 -52 79 -106c0 -76 -78 -117 -133 -169c-19 -18 -27 -52 -55 -52c-17 0 -30 17 -30 35l-14 583c10 6 21 9 32 9
s22 -3 32 -9z" fill="currentColor"/>
</g>
<a style="color:inherit;" xlink:href="textedit://C:/Users/jwloy/Documents/GitHub/sf005/public/pieces/sf005/notation/InteractiveLoopingLine001.ly:90:63:64">
<g transform="translate(49.6063, 10.4323)">
<path transform="scale(0.0032, -0.0032)" d="M212 138c59 0 113 -31 113 -95c0 -71 -52 -120 -99 -148c-34 -21 -73 -33 -113 -33c-59 0 -113 31 -113 95c0 71 53 120 100 148c34 21 72 33 112 33z" fill="currentColor"/>
</g>
</a>
<g transform="translate(50.5737, 9.9323)">
<rect x="-0.0650" y="-4.5168" width="0.1300" height="4.8808" ry="0.0400" fill="currentColor"/>
</g>
<a style="color:inherit;" xlink:href="textedit://C:/Users/jwloy/Documents/GitHub/sf005/public/pieces/sf005/notation/InteractiveLoopingLine001.ly:289:47:48">
<g transform="translate(70.6350, 19.5810)">
<path transform="scale(0.0040, -0.0040)" d="M218 136c55 0 108 -28 108 -89c0 -71 -55 -121 -102 -149c-35 -21 -75 -34 -116 -34c-55 0 -108 28 -108 89c0 71 55 121 102 149c35 21 75 34 116 34z" fill="currentColor"/>
</g>
</a>
<g transform="translate(70.7000, 19.5810)">
<rect x="-0.0650" y="0.1861" width="0.1300" height="3.1889" ry="0.0400" fill="currentColor"/>
</g>
<g transform="translate(70.7650, 22.9160)">
<path transform="scale(0.0040, -0.0040)" d="M0 0h-16v250h16v-250zM0 0v250c97 59 224 148 224 259c0 57 -15 112 -40 163c-3 16 10 27 23 27c7 0 15 -3 20 -11c25 -56 40 -117 40 -179c0 -203 -267 -306 -267 -509z" fill="currentColor"/>
</g>
<a style="color:inherit;" xlink:href="textedit://C:/Users/jwloy/Documents/GitHub/sf005/public/pieces/sf005/notation/InteractiveLoopingLine001.ly:92:8:9">
<g transform="translate(78.2686, 9.9323)">
<path transform="scale(0.0040, -0.0040)" d="M150 477c-29 0 -59 -8 -59 -33c0 -22 36 -25 36 -47c0 -32 -26 -58 -58 -58s-57 26 -57 58c0 65 67 103 138 103c91 0 169 -33 169 -114c0 -43 -4 -82 -42 -100c-9 -4 -14 -12 -14 -21s5 -18 14 -22c41 -19 56 -57 56 -103c0 -92 -79 -140 -179 -140
c-79 0 -154 42 -154 113c0 36 30 66 66 66s65 -30 65 -66c0 -25 -40 -28 -40 -53c0 -27 32 -37 63 -37c49 0 63 61 63 117v16c0 54 -2 94 -50 94h-80c-10 0 -14 8 -14 15s4 14 14 14h80c49 0 50 43 50 99v8c0 54 -18 91 -67 91z" fill="currentColor"/>
</g>
<g transform="translate(78.1320, 11.9468)">
<path transform="scale(0.0040, -0.0040)" d="M196 117h117c0 -48 27 -94 72 -94c8 0 12 -5 12 -11s-4 -12 -12 -12c-44 0 -87 13 -131 13s-87 -13 -131 -13c-8 0 -12 6 -12 12s4 11 12 11c45 0 73 46 73 94zM204 307c22 14 44 29 60 50c11 15 19 33 27 50c2 4 5 6 9 6c6 0 13 -5 13 -14v-245h72c10 0 15 -7 15 -14
s-5 -15 -15 -15h-72v-8h-117v8h-167c-23 0 -31 14 -31 23c0 3 1 5 2 6c80 93 138 207 138 330c0 10 7 19 16 16c23 -7 47 -13 71 -13s48 6 71 13c14 4 23 -9 17 -16l-284 -330h167v131c0 8 1 17 8 22z" fill="currentColor"/>
</g>
</a>
<g transform="translate(64.2079, 22.9160)">
<path transform="scale(0.0040, -0.0040)" d="M0 0h-16v250h16v-250zM0 0v250c97 59 224 148 224 259c0 57 -15 112 -40 163c-3 16 10 27 23 27c7 0 15 -3 20 -11c25 -56 40 -117 40 -179c0 -203 -267 -306 -267 -509z" fill="currentColor"/>
</g>
<a style="color:inherit;" xlink:href="textedit://C:/Users/jwloy/Documents/GitHub/sf005/public/pieces/sf005/notation/InteractiveLoopingLine001.ly:290:8:9">
<g transform="translate(78.2686, 19.5810)">
<path transform="scale(0.0040, -0.0040)" d="M150 477c-29 0 -59 -8 -59 -33c0 -22 36 -25 36 -47c0 -32 -26 -58 -58 -58s-57 26 -57 58c0 65 67 103 138 103c91 0 169 -33 169 -114c0 -43 -4 -82 -42 -100c-9 -4 -14 -12 -14 -21s5 -18 14 -22c41 -19 56 -57 56 -103c0 -92 -79 -140 -179 -140
c-79 0 -154 42 -154 113c0 36 30 66 66 66s65 -30 65 -66c0 -25 -40 -28 -40 -53c0 -27 32 -37 63 -37c49 0 63 61 63 117v16c0 54 -2 94 -50 94h-80c-10 0 -14 8 -14 15s4 14 14 14h80c49 0 50 43 50 99v8c0 54 -18 91 -67 91z" fill="currentColor"/>
</g>
<g transform="translate(78.1320, 21.5954)">
<path transform="scale(0.0040, -0.0040)" d="M196 117h117c0 -48 27 -94 72 -94c8 0 12 -5 12 -11s-4 -12 -12 -12c-44 0 -87 13 -131 13s-87 -13 -131 -13c-8 0 -12 6 -12 12s4 11 12 11c45 0 73 46 73 94zM204 307c22 14 44 29 60 50c11 15 19 33 27 50c2 4 5 6 9 6c6 0 13 -5 13 -14v-245h72c10 0 15 -7 15 -14
s-5 -15 -15 -15h-72v-8h-117v8h-167c-23 0 -31 14 -31 23c0 3 1 5 2 6c80 93 138 207 138 330c0 10 7 19 16 16c23 -7 47 -13 71 -13s48 6 71 13c14 4 23 -9 17 -16l-284 -330h167v131c0 8 1 17 8 22z" fill="currentColor"/>
</g>
</a>
<g transform="translate(57.9171, 4.9323)">
<polygon stroke-linejoin="round" stroke-linecap="round" stroke-width="0.0800" fill="currentColor" stroke="currentColor" points="4.7621 -2.3900 4.7621 -1.9900 0.0400 0.2000 0.0400 -0.2000"/>
</g>
<g transform="translate(57.9171, 5.7423)">
<polygon stroke-linejoin="round" stroke-linecap="round" stroke-width="0.0800" fill="currentColor" stroke="currentColor" points="4.7621 -2.3900 4.7621 -1.9900 0.0400 0.2000 0.0400 -0.2000"/>
</g>
<g transform="translate(61.5542, 4.8936)">
<polygon stroke-linejoin="round" stroke-linecap="round" stroke-width="0.0800" fill="currentColor" stroke="currentColor" points="1.1250 -0.7313 1.1250 -0.3313 0.0400 0.2000 0.0400 -0.2000"/>
</g>
<g transform="translate(45.6815, 4.4323)">
<polygon stroke-linejoin="round" stroke-linecap="round" stroke-width="0.0800" fill="currentColor" stroke="currentColor" points="9.9120 1.8000 9.9120 2.2000 0.0400 0.2000 0.0400 -0.2000"/>
</g>
<g transform="translate(45.6815, 5.2423)">
<polygon stroke-linejoin="round" stroke-linecap="round" stroke-width="0.0800" fill="currentColor" stroke="currentColor" points="9.9120 1.8000 9.9120 2.2000 0.0400 0.2000 0.0400 -0.2000"/>
</g>
<g transform="translate(26.3863, 5.1223)">
<polygon stroke-linejoin="round" stroke-linecap="round" stroke-width="0.0800" fill="currentColor" stroke="currentColor" points="9.6017 0.4200 9.6017 0.8200 0.0400 0.2000 0.0400 -0.2000"/>
</g>
<g transform="translate(26.3863, 5.9323)">
<polygon stroke-linejoin="round" stroke-linecap="round" stroke-width="0.0800" fill="currentColor" stroke="currentColor" points="1.1250 -0.1251 1.1250 0.2749 0.0400 0.2000 0.0400 -0.2000"/>
</g>
<a style="color:inherit;" xlink:href="textedit://C:/Users/jwloy/Documents/GitHub/sf005/public/pieces/sf005/notation/InteractiveLoopingLine001.ly:90:39:40">
<g transform="translate(50.2136, 4.6428)">
<text font-family="serif" font-style="italic" font-size="1.7461" text-anchor="start" fill="currentColor">
<tspan>5</tspan>
</text>
</g>
</a>
<a style="color:inherit;" xlink:href="textedit://C:/Users/jwloy/Documents/GitHub/sf005/public/pieces/sf005/notation/InteractiveLoopingLine001.ly:90:39:40">
<g transform="translate(45.6815, 3.0925)">
<line stroke-linejoin="round" stroke-linecap="round" stroke-width="0.1600" stroke="currentColor" x1="10.1481" y1="2.0128" x2="10.1481" y2="2.7128"/>
</g>
<g transform="translate(45.6815, 3.0925)">
<line stroke-linejoin="round" stroke-linecap="round" stroke-width="0.1600" stroke="currentColor" x1="-0.1962" y1="-0.0389" x2="-0.1962" y2="0.6611"/>
</g>
<g transform="translate(45.6815, 3.0925)">
<line stroke-linejoin="round" stroke-linecap="round" stroke-width="0.1600" stroke="currentColor" x1="10.1481" y1="2.0128" x2="5.9999" y2="1.1900"/>
</g>
<g transform="translate(45.6815, 3.0925)">
<line stroke-linejoin="round" stroke-linecap="round" stroke-width="0.1600" stroke="currentColor" x1="-0.1962" y1="-0.0389" x2="4.1482" y2="0.8228"/>
</g>
</a>
<g transform="translate(57.0796, 19.5810)">
<rect x="-0.0650" y="0.1861" width="0.1300" height="3.1889" ry="0.0400" fill="currentColor"/>
</g>
<g transform="translate(57.1446, 22.9160)">
<path transform="scale(0.0040, -0.0040)" d="M0 0h-16v250h16v-250zM0 0v250c97 59 224 148 224 259c0 57 -15 112 -40 163c-3 16 10 27 23 27c7 0 15 -3 20 -11c25 -56 40 -117 40 -179c0 -203 -267 -306 -267 -509z" fill="currentColor"/>
</g>
<a style="color:inherit;" xlink:href="textedit://C:/Users/jwloy/Documents/GitHub/sf005/public/pieces/sf005/notation/InteractiveLoopingLine001.ly:90:82:83">
<g transform="translate(61.6867, 7.9323)">
<path transform="scale(0.0032, -0.0032)" d="M212 138c59 0 113 -31 113 -95c0 -71 -52 -120 -99 -148c-34 -21 -73 -33 -113 -33c-59 0 -113 31 -113 95c0 71 53 120 100 148c34 21 72 33 112 33z" fill="currentColor"/>
</g>
</a>
<g transform="translate(62.6542, 9.9323)">
<rect x="-0.0650" y="-7.1604" width="0.1300" height="5.0244" ry="0.0400" fill="currentColor"/>
</g>
<g transform="translate(60.8328, 7.9323)">
<path transform="scale(0.0025, -0.0025)" d="M34 33l-1 -58v-10c0 -21 2 -43 5 -64c41 38 85 80 85 136c0 31 -13 63 -40 63c-31 0 -48 -33 -49 -67zM32 441l-8 -333c25 27 60 42 97 42c49 0 79 -52 79 -106c0 -76 -78 -117 -133 -169c-19 -18 -27 -52 -55 -52c-17 0 -30 17 -30 35l-14 583c10 6 21 9 32 9
s22 -3 32 -9z" fill="currentColor"/>
</g>
<a style="color:inherit;" xlink:href="textedit://C:/Users/jwloy/Documents/GitHub/sf005/public/pieces/sf005/notation/InteractiveLoopingLine001.ly:90:90:91">
<g transform="translate(64.0779, 6.4323)">
<path transform="scale(0.0032, -0.0032)" d="M212 138c59 0 113 -31 113 -95c0 -71 -52 -120 -99 -148c-34 -21 -73 -33 -113 -33c-59 0 -113 31 -113 95c0 71 53 120 100 148c34 21 72 33 112 33z" fill="currentColor"/>
</g>
</a>
<a style="color:inherit;" xlink:href="textedit://C:/Users/jwloy/Documents/GitHub/sf005/public/pieces/sf005/notation/InteractiveLoopingLine001.ly:289:42:43">
<g transform="translate(64.0779, 19.5810)">
<path transform="scale(0.0040, -0.0040)" d="M218 136c55 0 108 -28 108 -89c0 -71 -55 -121 -102 -149c-35 -21 -75 -34 -116 -34c-55 0 -108 28 -108 89c0 71 55 121 102 149c35 21 75 34 116 34z" fill="currentColor"/>
</g>
</a>
<a style="color:inherit;" xlink:href="textedit://C:/Users/jwloy/Documents/GitHub/sf005/public/pieces/sf005/notation/InteractiveLoopingLine001.ly:289:44:45">
<g transform="translate(64.7300, 18.8360)">
<path transform="scale(0.0040, -0.0040)" d="M-112 0c-9 0 -16 10 -12 18l113 250c2 4 6 7 11 7s9 -3 11 -7l113 -250c4 -8 -3 -18 -12 -18h-66c-5 0 -10 3 -12 7l-68 150l-67 -150c-2 -4 -6 -7 -11 -7z" fill="currentColor"/>
</g>
</a>
<g transform="translate(64.1429, 9.9323)">
<rect x="-0.0650" y="-3.3640" width="0.1300" height="5.3640" ry="0.0400" fill="currentColor"/>
</g>
<g transform="translate(63.2240, 6.4323)">
<path transform="scale(0.0025, -0.0025)" d="M34 33l-1 -58v-10c0 -21 2 -43 5 -64c41 38 85 80 85 136c0 31 -13 63 -40 63c-31 0 -48 -33 -49 -67zM32 441l-8 -333c25 27 60 42 97 42c49 0 79 -52 79 -106c0 -76 -78 -117 -133 -169c-19 -18 -27 -52 -55 -52c-17 0 -30 17 -30 35l-14 583c10 6 21 9 32 9
s22 -3 32 -9z" fill="currentColor"/>
</g>
<g transform="translate(64.1429, 19.5810)">
<rect x="-0.0650" y="0.1861" width="0.1300" height="3.1889" ry="0.0400" fill="currentColor"/>
</g>
<g transform="translate(13.0607, 19.5810)">
<rect x="-0.0650" y="0.1861" width="0.1300" height="3.1889" ry="0.0400" fill="currentColor"/>
</g>
<g transform="translate(7.4711, 8.4723)">
<path transform="scale(0.0040, -0.0040)" d="M0 0v-250h-16v250h16zM0 0c0 -197 207 -336 207 -533c0 -71 -15 -141 -41 -207c-5 -8 -13 -12 -20 -12c-13 0 -26 11 -23 27c26 61 42 126 42 192c0 103 -94 208 -165 283v250z" fill="currentColor"/>
</g>
<g transform="translate(5.3957, 13.9323)">
<path transform="scale(0.0025, -0.0025)" d="M198 -327c-13 0 -24 11 -24 24v129l-73 -29v-148c0 -13 -11 -24 -24 -24s-23 11 -23 24v129l-10 -4c-4 -2 -8 -2 -12 -2c-17 0 -32 14 -32 32v46c0 13 8 24 20 29l34 14v148l-10 -4c-4 -2 -8 -3 -12 -3c-17 0 -32 14 -32 32v46c0 13 8 25 20 30l34 13v148
c0 13 10 24 23 24s24 -11 24 -24v-129l73 29v148c0 13 11 24 24 24s23 -11 23 -24v-129l10 4c4 2 8 2 12 2c17 0 32 -14 32 -32v-46c0 -13 -8 -24 -20 -29l-34 -14v-148l10 4c4 2 8 3 12 3c17 0 32 -14 32 -32v-46c0 -13 -8 -25 -20 -30l-34 -13v-148c0 -13 -10 -24 -23 -24
zM101 59v-148l73 30v148z" fill="currentColor"/>
</g>
<g transform="translate(6.5036, 19.5810)">
<rect x="-0.0650" y="0.1861" width="0.1300" height="3.1889" ry="0.0400" fill="currentColor"/>
</g>
<g transform="translate(6.5686, 22.9160)">
<path transform="scale(0.0040, -0.0040)" d="M0 0h-16v250h16v-250zM0 0v250c97 59 224 148 224 259c0 57 -15 112 -40 163c-3 16 10 27 23 27c7 0 15 -3 20 -11c25 -56 40 -117 40 -179c0 -203 -267 -306 -267 -509z" fill="currentColor"/>
</g>
<a style="color:inherit;" xlink:href="textedit://C:/Users/jwloy/Documents/GitHub/sf005/public/pieces/sf005/notation/InteractiveLoopingLine001.ly:289:14:15">
<g transform="translate(12.9957, 19.5810)">
<path transform="scale(0.0040, -0.0040)" d="M218 136c55 0 108 -28 108 -89c0 -71 -55 -121 -102 -149c-35 -21 -75 -34 -116 -34c-55 0 -108 28 -108 89c0 71 55 121 102 149c35 21 75 34 116 34z" fill="currentColor"/>
</g>
</a>
<g transform="translate(7.4061, 9.9323)">
<rect x="-0.0650" y="-1.5000" width="0.1300" height="5.3640" ry="0.0400" fill="currentColor"/>
</g>
<g transform="translate(13.1257, 22.9160)">
<path transform="scale(0.0040, -0.0040)" d="M0 0h-16v250h16v-250zM0 0v250c97 59 224 148 224 259c0 57 -15 112 -40 163c-3 16 10 27 23 27c7 0 15 -3 20 -11c25 -56 40 -117 40 -179c0 -203 -267 -306 -267 -509z" fill="currentColor"/>
</g>
<a style="color:inherit;" xlink:href="textedit://C:/Users/jwloy/Documents/GitHub/sf005/public/pieces/sf005/notation/InteractiveLoopingLine001.ly:90:16:17">
<g transform="translate(16.2221, 14.9323)">
<path transform="scale(0.0032, -0.0032)" d="M212 138c59 0 113 -31 113 -95c0 -71 -52 -120 -99 -148c-34 -21 -73 -33 -113 -33c-59 0 -113 31 -113 95c0 71 53 120 100 148c34 21 72 33 112 33z" fill="currentColor"/>
</g>
</a>
<g transform="translate(17.1896, 9.9323)">
<rect x="-0.0650" y="-2.8366" width="0.1300" height="7.7006" ry="0.0400" fill="currentColor"/>
</g>
<a style="color:inherit;" xlink:href="textedit://C:/Users/jwloy/Documents/GitHub/sf005/public/pieces/sf005/notation/InteractiveLoopingLine001.ly:289:17:18">
<g transform="translate(19.4485, 19.5810)">
<path transform="scale(0.0040, -0.0040)" d="M218 136c55 0 108 -28 108 -89c0 -71 -55 -121 -102 -149c-35 -21 -75 -34 -116 -34c-55 0 -108 28 -108 89c0 71 55 121 102 149c35 21 75 34 116 34z" fill="currentColor"/>
</g>
</a>
<g transform="translate(19.5135, 19.5810)">
<rect x="-0.0650" y="0.1861" width="0.1300" height="3.1889" ry="0.0400" fill="currentColor"/>
</g>
<g transform="translate(19.5785, 22.9160)">
<path transform="scale(0.0040, -0.0040)" d="M0 0h-16v250h16v-250zM0 0v250c97 59 224 148 224 259c0 57 -15 112 -40 163c-3 16 10 27 23 27c7 0 15 -3 20 -11c25 -56 40 -117 40 -179c0 -203 -267 -306 -267 -509z" fill="currentColor"/>
</g>
<g transform="translate(-0.7409, 7.6573)">
<path transform="scale(0.0040, -0.0040)" d="M0 -56v87c0 14 11 25 25 25h50c159 0 271 136 362 270c11 17 37 -1 26 -18c-99 -144 -215 -364 -388 -364h-75z" fill="currentColor"/>
</g>
<g transform="translate(-0.7409, 19.8560)">
<path transform="scale(0.0040, -0.0040)" d="M0 56h75c173 0 289 -220 388 -364c11 -17 -15 -35 -26 -18c-91 134 -203 270 -362 270h-50c-14 0 -25 11 -25 25v87z" fill="currentColor"/>
</g>
<g transform="translate(-0.7409, 13.7566)">
<rect x="0.0000" y="-5.9193" width="0.4500" height="11.8387" ry="0.0000" fill="currentColor"/>
</g>
<g transform="translate(0.5091, 13.7566)">
<rect x="0.0000" y="-5.8743" width="0.1600" height="11.7487" ry="0.0500" fill="currentColor"/>
</g>
<a style="color:inherit;" xlink:href="textedit://C:/Users/jwloy/Documents/GitHub/sf005/public/pieces/sf005/notation/InteractiveLoopingLine001.ly:89:8:9">
<g transform="translate(1.5691, 9.9323)">
<g>
<path transform="scale(0.0040, -0.0040)" d="M175 487c18 0 58 31 58 -3v-367c0 -48 28 -94 73 -94c8 0 12 -5 12 -11s-4 -12 -12 -12c-44 0 -87 13 -131 13s-87 -13 -131 -13c-8 0 -12 6 -12 12s4 11 12 11c45 0 73 46 73 94v245c0 12 -9 19 -17 19c-4 0 -8 -3 -10 -7l-64 -136c-3 -6 -7 -9 -12 -9
c-8 0 -16 6 -16 14c0 2 1 5 2 7l117 250c3 6 10 3 16 0c13 -6 27 -13 42 -13z" fill="currentColor"/>

<path transform="translate(1.2633, 0.0000) scale(0.0040, -0.0040)" d="M175 487c18 0 58 31 58 -3v-367c0 -48 28 -94 73 -94c8 0 12 -5 12 -11s-4 -12 -12 -12c-44 0 -87 13 -131 13s-87 -13 -131 -13c-8 0 -12 6 -12 12s4 11 12 11c45 0 73 46 73 94v245c0 12 -9 19 -17 19c-4 0 -8 -3 -10 -7l-64 -136c-3 -6 -7 -9 -12 -9
c-8 0 -16 6 -16 14c0 2 1 5 2 7l117 250c3 6 10 3 16 0c13 -6 27 -13 42 -13z" fill="currentColor"/>
</g>
</g>
<g transform="translate(2.0983, 11.9468)">
<path transform="scale(0.0040, -0.0040)" d="M259 288c27 29 49 62 49 102c0 55 -57 87 -117 87c-47 0 -75 -36 -75 -71c0 -20 10 -40 30 -52zM289 271c55 -31 83 -79 83 -127c0 -73 -66 -144 -189 -144c-94 0 -183 54 -183 140c0 50 39 85 76 120c-41 28 -61 67 -61 106c0 68 61 134 176 134c81 0 161 -38 161 -110
c0 -47 -30 -85 -63 -119zM106 242c-33 -29 -62 -59 -62 -102c0 -69 66 -117 139 -117c54 0 86 42 86 83c0 24 -10 48 -35 62z" fill="currentColor"/>
</g>
</a>
<a style="color:inherit;" xlink:href="textedit://C:/Users/jwloy/Documents/GitHub/sf005/public/pieces/sf005/notation/InteractiveLoopingLine001.ly:288:8:9">
<g transform="translate(1.5691, 19.5810)">
<g>
<path transform="scale(0.0040, -0.0040)" d="M175 487c18 0 58 31 58 -3v-367c0 -48 28 -94 73 -94c8 0 12 -5 12 -11s-4 -12 -12 -12c-44 0 -87 13 -131 13s-87 -13 -131 -13c-8 0 -12 6 -12 12s4 11 12 11c45 0 73 46 73 94v245c0 12 -9 19 -17 19c-4 0 -8 -3 -10 -7l-64 -136c-3 -6 -7 -9 -12 -9
c-8 0 -16 6 -16 14c0 2 1 5 2 7l117 250c3 6 10 3 16 0c13 -6 27 -13 42 -13z" fill="currentColor"/>

<path transform="translate(1.2633, 0.0000) scale(0.0040, -0.0040)" d="M175 487c18 0 58 31 58 -3v-367c0 -48 28 -94 73 -94c8 0 12 -5 12 -11s-4 -12 -12 -12c-44 0 -87 13 -131 13s-87 -13 -131 -13c-8 0 -12 6 -12 12s4 11 12 11c45 0 73 46 73 94v245c0 12 -9 19 -17 19c-4 0 -8 -3 -10 -7l-64 -136c-3 -6 -7 -9 -12 -9
c-8 0 -16 6 -16 14c0 2 1 5 2 7l117 250c3 6 10 3 16 0c13 -6 27 -13 42 -13z" fill="currentColor"/>
</g>
</g>
<g transform="translate(2.0983, 21.5954)">
<path transform="scale(0.0040, -0.0040)" d="M259 288c27 29 49 62 49 102c0 55 -57 87 -117 87c-47 0 -75 -36 -75 -71c0 -20 10 -40 30 -52zM289 271c55 -31 83 -79 83 -127c0 -73 -66 -144 -189 -144c-94 0 -183 54 -183 140c0 50 39 85 76 120c-41 28 -61 67 -61 106c0 68 61 134 176 134c81 0 161 -38 161 -110
c0 -47 -30 -85 -63 -119zM106 242c-33 -29 -62 -59 -62 -102c0 -69 66 -117 139 -117c54 0 86 42 86 83c0 24 -10 48 -35 62z" fill="currentColor"/>
</g>
</a>
<a style="color:inherit;" xlink:href="textedit://C:/Users/jwloy/Documents/GitHub/sf005/public/pieces/sf005/notation/InteractiveLoopingLine001.ly:90:8:9">
<g transform="translate(6.4386, 13.9323)">
<path transform="scale(0.0032, -0.0032)" d="M212 138c59 0 113 -31 113 -95c0 -71 -52 -120 -99 -148c-34 -21 -73 -33 -113 -33c-59 0 -113 31 -113 95c0 71 53 120 100 148c34 21 72 33 112 33z" fill="currentColor"/>
</g>
</a>
<a style="color:inherit;" xlink:href="textedit://C:/Users/jwloy/Documents/GitHub/sf005/public/pieces/sf005/notation/InteractiveLoopingLine001.ly:90:13:14">
<g transform="translate(6.9549, 14.5710)">
<path transform="scale(0.0040, -0.0040)" d="M112 0c9 0 16 -10 12 -18l-113 -250c-2 -4 -6 -7 -11 -7s-9 3 -11 7l-113 250c-4 8 3 18 12 18h66c5 0 10 -3 12 -7l68 -150l67 150c2 4 6 7 11 7z" fill="currentColor"/>
</g>
</a>
<a style="color:inherit;" xlink:href="textedit://C:/Users/jwloy/Documents/GitHub/sf005/public/pieces/sf005/notation/InteractiveLoopingLine001.ly:289:8:9">
<g transform="translate(6.4386, 19.5810)">
<path transform="scale(0.0040, -0.0040)" d="M218 136c55 0 108 -28 108 -89c0 -71 -55 -121 -102 -149c-35 -21 -75 -34 -116 -34c-55 0 -108 28 -108 89c0 71 55 121 102 149c35 21 75 34 116 34z" fill="currentColor"/>
</g>
</a>
<a style="color:inherit;" xlink:href="textedit://C:/Users/jwloy/Documents/GitHub/sf005/public/pieces/sf005/notation/InteractiveLoopingLine001.ly:289:11:12">
<g transform="translate(7.0907, 18.8360)">
<path transform="scale(0.0040, -0.0040)" d="M-112 0c-9 0 -16 10 -12 18l113 250c2 4 6 7 11 7s9 -3 11 -7l113 -250c4 -8 -3 -18 -12 -18h-66c-5 0 -10 3 -12 7l-68 150l-67 -150c-2 -4 -6 -7 -11 -7z" fill="currentColor"/>
</g>
</a>
<g transform="translate(7.9211, 13.4323)">
<path transform="scale(0.0040, -0.0040)" d="M0 0c0 31 25 56 56 56s56 -25 56 -56s-25 -56 -56 -56s-56 25 -56 56z" fill="currentColor"/>
</g>
<a style="color:inherit;" xlink:href="textedit://C:/Users/jwloy/Documents/GitHub/sf005/public/pieces/sf005/notation/InteractiveLoopingLine001.ly:90:28:29">
<g transform="translate(28.5427, 10.9323)">
<path transform="scale(0.0032, -0.0032)" d="M212 138c59 0 113 -31 113 -95c0 -71 -52 -120 -99 -148c-34 -21 -73 -33 -113 -33c-59 0 -113 31 -113 95c0 71 53 120 100 148c34 21 72 33 112 33z" fill="currentColor"/>
</g>
</a>
<a style="color:inherit;" xlink:href="textedit://C:/Users/jwloy/Documents/GitHub/sf005/public/pieces/sf005/notation/InteractiveLoopingLine001.ly:289:25:26">
<g transform="translate(31.7691, 19.5810)">
<path transform="scale(0.0040, -0.0040)" d="M218 136c55 0 108 -28 108 -89c0 -71 -55 -121 -102 -149c-35 -21 -75 -34 -116 -34c-55 0 -108 28 -108 89c0 71 55 121 102 149c35 21 75 34 116 34z" fill="currentColor"/>
</g>
</a>
<g transform="translate(31.8341, 19.5810)">
<rect x="-0.0650" y="0.1861" width="0.1300" height="3.1889" ry="0.0400" fill="currentColor"/>
</g>
<g transform="translate(31.8991, 22.9160)">
<path transform="scale(0.0040, -0.0040)" d="M0 0h-16v250h16v-250zM0 0v250c97 59 224 148 224 259c0 57 -15 112 -40 163c-3 16 10 27 23 27c7 0 15 -3 20 -11c25 -56 40 -117 40 -179c0 -203 -267 -306 -267 -509z" fill="currentColor"/>
</g>
<g transform="translate(29.5102, 9.9323)">
<rect x="-0.0650" y="-4.6091" width="0.1300" height="5.4731" ry="0.0400" fill="currentColor"/>
</g>
<a style="color:inherit;" xlink:href="textedit://C:/Users/jwloy/Documents/GitHub/sf005/public/pieces/sf005/notation/InteractiveLoopingLine001.ly:90:32:33">
<g transform="translate(34.9956, 11.4323)">
<path transform="scale(0.0032, -0.0032)" d="M212 138c59 0 113 -31 113 -95c0 -71 -52 -120 -99 -148c-34 -21 -73 -33 -113 -33c-59 0 -113 31 -113 95c0 71 53 120 100 148c34 21 72 33 112 33z" fill="currentColor"/>
</g>
</a>
<g transform="translate(36.4780, 11.4323)">
<path transform="scale(0.0040, -0.0040)" d="M0 0c0 31 25 56 56 56s56 -25 56 -56s-25 -56 -56 -56s-56 25 -56 56z" fill="currentColor"/>
</g>
<g transform="translate(35.9630, 9.9323)">
<rect x="-0.0650" y="-4.1942" width="0.1300" height="5.5582" ry="0.0400" fill="currentColor"/>
</g>
<g transform="translate(33.9526, 11.4323)">
<path transform="scale(0.0025, -0.0025)" d="M198 -327c-13 0 -24 11 -24 24v129l-73 -29v-148c0 -13 -11 -24 -24 -24s-23 11 -23 24v129l-10 -4c-4 -2 -8 -2 -12 -2c-17 0 -32 14 -32 32v46c0 13 8 24 20 29l34 14v148l-10 -4c-4 -2 -8 -3 -12 -3c-17 0 -32 14 -32 32v46c0 13 8 25 20 30l34 13v148
c0 13 10 24 23 24s24 -11 24 -24v-129l73 29v148c0 13 11 24 24 24s23 -11 23 -24v-129l10 4c4 2 8 2 12 2c17 0 32 -14 32 -32v-46c0 -13 -8 -24 -20 -29l-34 -14v-148l10 4c4 2 8 3 12 3c17 0 32 -14 32 -32v-46c0 -13 -8 -25 -20 -30l-34 -13v-148c0 -13 -10 -24 -23 -24
zM101 59v-148l73 30v148z" fill="currentColor"/>
</g>
<a style="color:inherit;" xlink:href="textedit://C:/Users/jwloy/Documents/GitHub/sf005/public/pieces/sf005/notation/InteractiveLoopingLine001.ly:289:28:29">
<g transform="translate(38.2220, 19.5810)">
<path transform="scale(0.0040, -0.0040)" d="M218 136c55 0 108 -28 108 -89c0 -71 -55 -121 -102 -149c-35 -21 -75 -34 -116 -34c-55 0 -108 28 -108 89c0 71 55 121 102 149c35 21 75 34 116 34z" fill="currentColor"/>
</g>
</a>
<g transform="translate(38.2870, 19.5810)">
<rect x="-0.0650" y="0.1861" width="0.1300" height="3.1889" ry="0.0400" fill="currentColor"/>
</g>
<g transform="translate(38.3520, 22.9160)">
<path transform="scale(0.0040, -0.0040)" d="M0 0h-16v250h16v-250zM0 0v250c97 59 224 148 224 259c0 57 -15 112 -40 163c-3 16 10 27 23 27c7 0 15 -3 20 -11c25 -56 40 -117 40 -179c0 -203 -267 -306 -267 -509z" fill="currentColor"/>
</g>
<a style="color:inherit;" xlink:href="textedit://C:/Users/jwloy/Documents/GitHub/sf005/public/pieces/sf005/notation/InteractiveLoopingLine001.ly:90:19:20">
<g transform="translate(22.6749, 9.4323)">
<path transform="scale(0.0032, -0.0032)" d="M212 138c59 0 113 -31 113 -95c0 -71 -52 -120 -99 -148c-34 -21 -73 -33 -113 -33c-59 0 -113 31 -113 95c0 71 53 120 100 148c34 21 72 33 112 33z" fill="currentColor"/>
</g>
</a>
<g transform="translate(23.6424, 9.9323)">
<rect x="-0.0650" y="-5.4734" width="0.1300" height="4.8375" ry="0.0400" fill="currentColor"/>
</g>
<a style="color:inherit;" xlink:href="textedit://C:/Users/jwloy/Documents/GitHub/sf005/public/pieces/sf005/notation/InteractiveLoopingLine001.ly:90:25:26">
<g transform="translate(25.4838, 10.4323)">
<path transform="scale(0.0032, -0.0032)" d="M212 138c59 0 113 -31 113 -95c0 -71 -52 -120 -99 -148c-34 -21 -73 -33 -113 -33c-59 0 -113 31 -113 95c0 71 53 120 100 148c34 21 72 33 112 33z" fill="currentColor"/>
</g>
</a>
<a style="color:inherit;" xlink:href="textedit://C:/Users/jwloy/Documents/GitHub/sf005/public/pieces/sf005/notation/InteractiveLoopingLine001.ly:289:20:21">
<g transform="translate(25.4838, 19.5810)">
<path transform="scale(0.0040, -0.0040)" d="M218 136c55 0 108 -28 108 -89c0 -71 -55 -121 -102 -149c-35 -21 -75 -34 -116 -34c-55 0 -108 28 -108 89c0 71 55 121 102 149c35 21 75 34 116 34z" fill="currentColor"/>
</g>
</a>
<a style="color:inherit;" xlink:href="textedit://C:/Users/jwloy/Documents/GitHub/sf005/public/pieces/sf005/notation/InteractiveLoopingLine001.ly:289:22:23">
<g transform="translate(26.1359, 18.8360)">
<path transform="scale(0.0040, -0.0040)" d="M-112 0c-9 0 -16 10 -12 18l113 250c2 4 6 7 11 7s9 -3 11 -7l113 -250c4 -8 -3 -18 -12 -18h-66c-5 0 -10 3 -12 7l-68 150l-67 -150c-2 -4 -6 -7 -11 -7z" fill="currentColor"/>
</g>
</a>
<g transform="translate(26.4513, 9.9323)">
<rect x="-0.0650" y="-4.8058" width="0.1300" height="5.1698" ry="0.0400" fill="currentColor"/>
</g>
<g transform="translate(25.6138, 22.9160)">
<path transform="scale(0.0040, -0.0040)" d="M0 0h-16v250h16v-250zM0 0v250c97 59 224 148 224 259c0 57 -15 112 -40 163c-3 16 10 27 23 27c7 0 15 -3 20 -11c25 -56 40 -117 40 -179c0 -203 -267 -306 -267 -509z" fill="currentColor"/>
</g>
<g transform="translate(25.5488, 19.5810)">
<rect x="-0.0650" y="0.1861" width="0.1300" height="3.1889" ry="0.0400" fill="currentColor"/>
</g>
<g transform="translate(0.5691, 44.3649)">
<line stroke-linejoin="round" stroke-linecap="round" stroke-width="0.1000" stroke="currentColor" x1="0.0500" y1="0" x2="79.6177" y2="0"/>
</g>
<g transform="translate(0.5691, 43.3649)">
<line stroke-linejoin="round" stroke-linecap="round" stroke-width="0.1000" stroke="currentColor" x1="0.0500" y1="0" x2="79.6177" y2="0"/>
</g>
<g transform="translate(0.5691, 42.3649)">
<line stroke-linejoin="round" stroke-linecap="round" stroke-width="0.1000" stroke="currentColor" x1="0.0500" y1="0" x2="79.6177" y2="0"/>
</g>
<g transform="translate(0.5691, 41.3649)">
<line stroke-linejoin="round" stroke-linecap="round" stroke-width="0.1000" stroke="currentColor" x1="0.0500" y1="0" x2="79.6177" y2="0"/>
</g>
<g transform="translate(0.5691, 40.3649)">
<line stroke-linejoin="round" stroke-linecap="round" stroke-width="0.1000" stroke="currentColor" x1="0.0500" y1="0" x2="79.6177" y2="0"/>
</g>
<g transform="translate(0.5691, 39.3649)">
<rect x="4.3301" y="-0.1000" width="1.6476" height="0.2000" ry="0.1000" fill="currentColor"/>
</g>
<g transform="translate(0.5691, 52.0135)">
<line stroke-linejoin="round" stroke-linecap="round" stroke-width="0.1000" stroke="currentColor" x1="0.0500" y1="0" x2="79.6177" y2="0"/>
</g>
<g transform="translate(75.9970, 42.3649)">
<rect x="0.0000" y="-2.0000" width="0.1900" height="4.0500" ry="0.0000" fill="currentColor"/>
</g>
<g transform="translate(75.9970, 52.0135)">
<rect x="0.0000" y="-1.1000" width="0.1900" height="2.1500" ry="0.0000" fill="currentColor"/>
</g>
<g transform="translate(75.9970, 37.5998)">
<rect x="0.0000" y="6.8151" width="0.1900" height="6.5987" ry="0.0000" fill="currentColor"/>
</g>
<g transform="translate(17.0253, 52.0135)">
<rect x="-0.0650" y="0.1861" width="0.1300" height="3.0039" ry="0.0400" fill="currentColor"/>
</g>
<a style="color:inherit;" xlink:href="textedit://C:/Users/jwloy/Documents/GitHub/sf005/public/pieces/sf005/notation/InteractiveLoopingLine001.ly:291:15:16">
<g transform="translate(16.9603, 52.0135)">
<path transform="scale(0.0040, -0.0040)" d="M218 136c55 0 108 -28 108 -89c0 -71 -55 -121 -102 -149c-35 -21 -75 -34 -116 -34c-55 0 -108 28 -108 89c0 71 55 121 102 149c35 21 75 34 116 34z" fill="currentColor"/>
</g>
</a>
<a style="color:inherit;" xlink:href="textedit://C:/Users/jwloy/Documents/GitHub/sf005/public/pieces/sf005/notation/InteractiveLoopingLine001.ly:291:35:36">
<g transform="translate(22.9057, 52.0135)">
<path transform="scale(0.0040, -0.0040)" d="M218 136c55 0 108 -28 108 -89c0 -71 -55 -121 -102 -149c-35 -21 -75 -34 -116 -34c-55 0 -108 28 -108 89c0 71 55 121 102 149c35 21 75 34 116 34z" fill="currentColor"/>
</g>
</a>
<a style="color:inherit;" xlink:href="textedit://C:/Users/jwloy/Documents/GitHub/sf005/public/pieces/sf005/notation/InteractiveLoopingLine001.ly:291:40:41">
<g transform="translate(23.5578, 51.2685)">
<path transform="scale(0.0040, -0.0040)" d="M-112 0c-9 0 -16 10 -12 18l113 250c2 4 6 7 11 7s9 -3 11 -7l113 -250c4 -8 -3 -18 -12 -18h-66c-5 0 -10 3 -12 7l-68 150l-67 -150c-2 -4 -6 -7 -11 -7z" fill="currentColor"/>
</g>
</a>
<g transform="translate(25.5599, 51.5135)">
<path transform="scale(0.0040, -0.0040)" d="M0 0c0 31 25 56 56 56s56 -25 56 -56s-25 -56 -56 -56s-56 25 -56 56z" fill="currentColor"/>
</g>
<g transform="translate(24.6599, 51.5135)">
<path transform="scale(0.0040, -0.0040)" d="M0 0c0 31 25 56 56 56s56 -25 56 -56s-25 -56 -56 -56s-56 25 -56 56z" fill="currentColor"/>
</g>
<g transform="translate(22.9707, 52.0135)">
<rect x="-0.0650" y="0.1861" width="0.1300" height="3.3139" ry="0.0400" fill="currentColor"/>
</g>
<a style="color:inherit;" xlink:href="textedit://C:/Users/jwloy/Documents/GitHub/sf005/public/pieces/sf005/notation/InteractiveLoopingLine001.ly:293:8:9">
<g transform="translate(77.0053, 52.0135)">
<g>
<path transform="scale(0.0040, -0.0040)" d="M150 477c-29 0 -59 -8 -59 -33c0 -22 36 -25 36 -47c0 -32 -26 -58 -58 -58s-57 26 -57 58c0 65 67 103 138 103c91 0 169 -33 169 -114c0 -43 -4 -82 -42 -100c-9 -4 -14 -12 -14 -21s5 -18 14 -22c41 -19 56 -57 56 -103c0 -92 -79 -140 -179 -140
c-79 0 -154 42 -154 113c0 36 30 66 66 66s65 -30 65 -66c0 -25 -40 -28 -40 -53c0 -27 32 -37 63 -37c49 0 63 61 63 117v16c0 54 -2 94 -50 94h-80c-10 0 -14 8 -14 15s4 14 14 14h80c49 0 50 43 50 99v8c0 54 -18 91 -67 91z" fill="currentColor"/>

<path transform="translate(1.3316, 0.0000) scale(0.0040, -0.0040)" d="M46 500c46 -8 91 -13 137 -13s92 5 138 13c15 2 23 -10 17 -16c-68 -68 -166 -93 -263 -93c-9 0 -17 -8 -17 -17v-96c28 28 66 43 105 43c116 0 186 -51 186 -161c0 -94 -87 -160 -186 -160c-82 0 -163 39 -163 113c0 36 30 66 66 66s65 -30 65 -66
c0 -25 -40 -28 -40 -53c0 -30 37 -37 72 -37c57 0 70 71 70 137c0 63 -15 132 -70 132c-42 0 -83 -12 -107 -45c-3 -4 -8 -6 -12 -6c-8 0 -15 6 -15 15v228c0 10 8 18 17 16z" fill="currentColor"/>
</g>
</g>
<g transform="translate(76.9370, 54.0280)">
<g>
<path transform="scale(0.0040, -0.0040)" d="M150 477c-29 0 -59 -8 -59 -33c0 -22 36 -25 36 -47c0 -32 -26 -58 -58 -58s-57 26 -57 58c0 65 67 103 138 103c91 0 169 -33 169 -114c0 -43 -4 -82 -42 -100c-9 -4 -14 -12 -14 -21s5 -18 14 -22c41 -19 56 -57 56 -103c0 -92 -79 -140 -179 -140
c-79 0 -154 42 -154 113c0 36 30 66 66 66s65 -30 65 -66c0 -25 -40 -28 -40 -53c0 -27 32 -37 63 -37c49 0 63 61 63 117v16c0 54 -2 94 -50 94h-80c-10 0 -14 8 -14 15s4 14 14 14h80c49 0 50 43 50 99v8c0 54 -18 91 -67 91z" fill="currentColor"/>

<path transform="translate(1.3316, 0.0000) scale(0.0040, -0.0040)" d="M103 135c9 2 17 3 26 3c33 0 70 -11 105 -36c21 -15 46 -23 66 -23c21 0 39 9 44 29c2 6 6 9 11 9c6 0 12 -5 12 -12c0 -67 -90 -105 -138 -105c-36 0 -71 14 -96 44c-13 16 -31 22 -48 22c-30 0 -59 -20 -62 -55c-1 -7 -6 -11 -11 -11c-6 0 -12 4 -12 11
c0 175 235 165 235 344c0 60 -18 122 -70 122c-26 0 -51 -14 -51 -37c0 -27 35 -41 35 -68c0 -38 -30 -69 -68 -69s-69 31 -69 69c0 76 72 128 153 128c96 0 187 -56 187 -145c0 -153 -151 -159 -249 -220z" fill="currentColor"/>
</g>
</g>
</a>
<a style="color:inherit;" xlink:href="textedit://C:/Users/jwloy/Documents/GitHub/sf005/public/pieces/sf005/notation/InteractiveLoopingLine001.ly:95:8:9">
<g transform="translate(77.0053, 42.3649)">
<g>
<path transform="scale(0.0040, -0.0040)" d="M150 477c-29 0 -59 -8 -59 -33c0 -22 36 -25 36 -47c0 -32 -26 -58 -58 -58s-57 26 -57 58c0 65 67 103 138 103c91 0 169 -33 169 -114c0 -43 -4 -82 -42 -100c-9 -4 -14 -12 -14 -21s5 -18 14 -22c41 -19 56 -57 56 -103c0 -92 -79 -140 -179 -140
c-79 0 -154 42 -154 113c0 36 30 66 66 66s65 -30 65 -66c0 -25 -40 -28 -40 -53c0 -27 32 -37 63 -37c49 0 63 61 63 117v16c0 54 -2 94 -50 94h-80c-10 0 -14 8 -14 15s4 14 14 14h80c49 0 50 43 50 99v8c0 54 -18 91 -67 91z" fill="currentColor"/>

<path transform="translate(1.3316, 0.0000) scale(0.0040, -0.0040)" d="M46 500c46 -8 91 -13 137 -13s92 5 138 13c15 2 23 -10 17 -16c-68 -68 -166 -93 -263 -93c-9 0 -17 -8 -17 -17v-96c28 28 66 43 105 43c116 0 186 -51 186 -161c0 -94 -87 -160 -186 -160c-82 0 -163 39 -163 113c0 36 30 66 66 66s65 -30 65 -66
c0 -25 -40 -28 -40 -53c0 -30 37 -37 72 -37c57 0 70 71 70 137c0 63 -15 132 -70 132c-42 0 -83 -12 -107 -45c-3 -4 -8 -6 -12 -6c-8 0 -15 6 -15 15v228c0 10 8 18 17 16z" fill="currentColor"/>
</g>
</g>
<g transform="translate(76.9370, 44.3793)">
<g>
<path transform="scale(0.0040, -0.0040)" d="M150 477c-29 0 -59 -8 -59 -33c0 -22 36 -25 36 -47c0 -32 -26 -58 -58 -58s-57 26 -57 58c0 65 67 103 138 103c91 0 169 -33 169 -114c0 -43 -4 -82 -42 -100c-9 -4 -14 -12 -14 -21s5 -18 14 -22c41 -19 56 -57 56 -103c0 -92 -79 -140 -179 -140
c-79 0 -154 42 -154 113c0 36 30 66 66 66s65 -30 65 -66c0 -25 -40 -28 -40 -53c0 -27 32 -37 63 -37c49 0 63 61 63 117v16c0 54 -2 94 -50 94h-80c-10 0 -14 8 -14 15s4 14 14 14h80c49 0 50 43 50 99v8c0 54 -18 91 -67 91z" fill="currentColor"/>

<path transform="translate(1.3316, 0.0000) scale(0.0040, -0.0040)" d="M103 135c9 2 17 3 26 3c33 0 70 -11 105 -36c21 -15 46 -23 66 -23c21 0 39 9 44 29c2 6 6 9 11 9c6 0 12 -5 12 -12c0 -67 -90 -105 -138 -105c-36 0 -71 14 -96 44c-13 16 -31 22 -48 22c-30 0 -59 -20 -62 -55c-1 -7 -6 -11 -11 -11c-6 0 -12 4 -12 11
c0 175 235 165 235 344c0 60 -18 122 -70 122c-26 0 -51 -14 -51 -37c0 -27 35 -41 35 -68c0 -38 -30 -69 -68 -69s-69 31 -69 69c0 76 72 128 153 128c96 0 187 -56 187 -145c0 -153 -151 -159 -249 -220z" fill="currentColor"/>
</g>
</g>
</a>
<a style="color:inherit;" xlink:href="textedit://C:/Users/jwloy/Documents/GitHub/sf005/public/pieces/sf005/notation/InteractiveLoopingLine001.ly:291:8:9">
<g transform="translate(15.9253, 54.3935)">
<polygon stroke-linejoin="round" stroke-linecap="round" stroke-width="0.0800" fill="currentColor" stroke="currentColor" points="1.1250 -0.2000 1.1250 0.2000 0.0400 0.2000 0.0400 -0.2000"/>
</g>
<g transform="translate(5.1738, 55.2035)">
<polygon stroke-linejoin="round" stroke-linecap="round" stroke-width="0.0800" fill="currentColor" stroke="currentColor" points="11.8765 -0.2000 11.8765 0.2000 0.0400 0.2000 0.0400 -0.2000"/>
</g>
</a>
<a style="color:inherit;" xlink:href="textedit://C:/Users/jwloy/Documents/GitHub/sf005/public/pieces/sf005/notation/InteractiveLoopingLine001.ly:291:34:35">
<g transform="translate(42.4189, 53.8935)">
<polygon stroke-linejoin="round" stroke-linecap="round" stroke-width="0.0800" fill="currentColor" stroke="currentColor" points="1.1250 -0.2000 1.1250 0.2000 0.0400 0.2000 0.0400 -0.2000"/>
</g>
<g transform="translate(42.4189, 54.7035)">
<polygon stroke-linejoin="round" stroke-linecap="round" stroke-width="0.0800" fill="currentColor" stroke="currentColor" points="1.1250 -0.2000 1.1250 0.2000 0.0400 0.2000 0.0400 -0.2000"/>
</g>
<g transform="translate(22.9057, 55.5135)">
<polygon stroke-linejoin="round" stroke-linecap="round" stroke-width="0.0800" fill="currentColor" stroke="currentColor" points="20.6382 -0.2000 20.6382 0.2000 0.0400 0.2000 0.0400 -0.2000"/>
</g>
</a>
<a style="color:inherit;" xlink:href="textedit://C:/Users/jwloy/Documents/GitHub/sf005/public/pieces/sf005/notation/InteractiveLoopingLine001.ly:291:61:62">
<g transform="translate(46.4787, 54.3935)">
<polygon stroke-linejoin="round" stroke-linecap="round" stroke-width="0.0800" fill="currentColor" stroke="currentColor" points="1.1250 -0.2000 1.1250 0.2000 0.0400 0.2000 0.0400 -0.2000"/>
</g>
<g transform="translate(46.4787, 55.2035)">
<polygon stroke-linejoin="round" stroke-linecap="round" stroke-width="0.0800" fill="currentColor" stroke="currentColor" points="6.0354 -0.2000 6.0354 0.2000 0.0400 0.2000 0.0400 -0.2000"/>
</g>
</a>
<g transform="translate(43.5189, 52.0135)">
<rect x="-0.0650" y="0.1861" width="0.1300" height="3.3139" ry="0.0400" fill="currentColor"/>
</g>
<a style="color:inherit;" xlink:href="textedit://C:/Users/jwloy/Documents/GitHub/sf005/public/pieces/sf005/notation/InteractiveLoopingLine001.ly:93:8:9">
<g transform="translate(5.1738, 39.3649)">
<path transform="scale(0.0032, -0.0032)" d="M310 63c0 23 -19 40 -40 40c-4 0 -8 -1 -12 -2c-30 -8 -75 -38 -111 -61s-81 -52 -101 -76c-7 -8 -10 -17 -10 -27c0 -23 19 -40 40 -40c4 0 8 1 12 2c30 8 75 38 111 61s81 52 101 76c7 8 10 17 10 27zM256 138c50 0 90 -22 90 -77c0 -18 -5 -37 -10 -55
c-11 -38 -30 -74 -63 -96c-53 -35 -111 -48 -183 -48c-50 0 -90 22 -90 77c0 18 5 37 10 55c11 38 30 74 63 96c53 36 111 48 183 48z" fill="currentColor"/>
</g>
</a>
<a style="color:inherit;" xlink:href="textedit://C:/Users/jwloy/Documents/GitHub/sf005/public/pieces/sf005/notation/InteractiveLoopingLine001.ly:93:13:14">
<g transform="translate(5.7230, 38.7262)">
<path transform="scale(0.0040, -0.0040)" d="M-112 0c-9 0 -16 10 -12 18l113 250c2 4 6 7 11 7s9 -3 11 -7l113 -250c4 -8 -3 -18 -12 -18h-66c-5 0 -10 3 -12 7l-68 150l-67 -150c-2 -4 -6 -7 -11 -7z" fill="currentColor"/>
</g>
</a>
<a style="color:inherit;" xlink:href="textedit://C:/Users/jwloy/Documents/GitHub/sf005/public/pieces/sf005/notation/InteractiveLoopingLine001.ly:291:9:10">
<g transform="translate(5.1738, 52.0135)">
<path transform="scale(0.0040, -0.0040)" d="M218 136c55 0 108 -28 108 -89c0 -71 -55 -121 -102 -149c-35 -21 -75 -34 -116 -34c-55 0 -108 28 -108 89c0 71 55 121 102 149c35 21 75 34 116 34z" fill="currentColor"/>
</g>
</a>
<a style="color:inherit;" xlink:href="textedit://C:/Users/jwloy/Documents/GitHub/sf005/public/pieces/sf005/notation/InteractiveLoopingLine001.ly:291:12:13">
<g transform="translate(5.8259, 51.2685)">
<path transform="scale(0.0040, -0.0040)" d="M-112 0c-9 0 -16 10 -12 18l113 250c2 4 6 7 11 7s9 -3 11 -7l113 -250c4 -8 -3 -18 -12 -18h-66c-5 0 -10 3 -12 7l-68 150l-67 -150c-2 -4 -6 -7 -11 -7z" fill="currentColor"/>
</g>
</a>
<g transform="translate(6.7222, 38.8649)">
<path transform="scale(0.0040, -0.0040)" d="M0 0c0 31 25 56 56 56s56 -25 56 -56s-25 -56 -56 -56s-56 25 -56 56z" fill="currentColor"/>
</g>
<g transform="translate(5.2388, 42.3649)">
<rect x="-0.0650" y="-2.8051" width="0.1300" height="5.3051" ry="0.0400" fill="currentColor"/>
</g>
<g transform="translate(5.2388, 52.0135)">
<rect x="-0.0650" y="0.1861" width="0.1300" height="3.0039" ry="0.0400" fill="currentColor"/>
</g>
<a style="color:inherit;" xlink:href="textedit://C:/Users/jwloy/Documents/GitHub/sf005/public/pieces/sf005/notation/InteractiveLoopingLine001.ly:291:43:44">
<g transform="translate(43.4539, 52.0135)">
<path transform="scale(0.0040, -0.0040)" d="M218 136c55 0 108 -28 108 -89c0 -71 -55 -121 -102 -149c-35 -21 -75 -34 -116 -34c-55 0 -108 28 -108 89c0 71 55 121 102 149c35 21 75 34 116 34z" fill="currentColor"/>
</g>
</a>
<a style="color:inherit;" xlink:href="textedit://C:/Users/jwloy/Documents/GitHub/sf005/public/pieces/sf005/notation/InteractiveLoopingLine001.ly:290:8:9">
<g transform="translate(1.7056, 52.0135)">
<path transform="scale(0.0040, -0.0040)" d="M150 477c-29 0 -59 -8 -59 -33c0 -22 36 -25 36 -47c0 -32 -26 -58 -58 -58s-57 26 -57 58c0 65 67 103 138 103c91 0 169 -33 169 -114c0 -43 -4 -82 -42 -100c-9 -4 -14 -12 -14 -21s5 -18 14 -22c41 -19 56 -57 56 -103c0 -92 -79 -140 -179 -140
c-79 0 -154 42 -154 113c0 36 30 66 66 66s65 -30 65 -66c0 -25 -40 -28 -40 -53c0 -27 32 -37 63 -37c49 0 63 61 63 117v16c0 54 -2 94 -50 94h-80c-10 0 -14 8 -14 15s4 14 14 14h80c49 0 50 43 50 99v8c0 54 -18 91 -67 91z" fill="currentColor"/>
</g>
<g transform="translate(1.5691, 54.0280)">
<path transform="scale(0.0040, -0.0040)" d="M196 117h117c0 -48 27 -94 72 -94c8 0 12 -5 12 -11s-4 -12 -12 -12c-44 0 -87 13 -131 13s-87 -13 -131 -13c-8 0 -12 6 -12 12s4 11 12 11c45 0 73 46 73 94zM204 307c22 14 44 29 60 50c11 15 19 33 27 50c2 4 5 6 9 6c6 0 13 -5 13 -14v-245h72c10 0 15 -7 15 -14
s-5 -15 -15 -15h-72v-8h-117v8h-167c-23 0 -31 14 -31 23c0 3 1 5 2 6c80 93 138 207 138 330c0 10 7 19 16 16c23 -7 47 -13 71 -13s48 6 71 13c14 4 23 -9 17 -16l-284 -330h167v131c0 8 1 17 8 22z" fill="currentColor"/>
</g>
</a>
<a style="color:inherit;" xlink:href="textedit://C:/Users/jwloy/Documents/GitHub/sf005/public/pieces/sf005/notation/InteractiveLoopingLine001.ly:92:8:9">
<g transform="translate(1.7056, 42.3649)">
<path transform="scale(0.0040, -0.0040)" d="M150 477c-29 0 -59 -8 -59 -33c0 -22 36 -25 36 -47c0 -32 -26 -58 -58 -58s-57 26 -57 58c0 65 67 103 138 103c91 0 169 -33 169 -114c0 -43 -4 -82 -42 -100c-9 -4 -14 -12 -14 -21s5 -18 14 -22c41 -19 56 -57 56 -103c0 -92 -79 -140 -179 -140
c-79 0 -154 42 -154 113c0 36 30 66 66 66s65 -30 65 -66c0 -25 -40 -28 -40 -53c0 -27 32 -37 63 -37c49 0 63 61 63 117v16c0 54 -2 94 -50 94h-80c-10 0 -14 8 -14 15s4 14 14 14h80c49 0 50 43 50 99v8c0 54 -18 91 -67 91z" fill="currentColor"/>
</g>
<g transform="translate(1.5691, 44.3793)">
<path transform="scale(0.0040, -0.0040)" d="M196 117h117c0 -48 27 -94 72 -94c8 0 12 -5 12 -11s-4 -12 -12 -12c-44 0 -87 13 -131 13s-87 -13 -131 -13c-8 0 -12 6 -12 12s4 11 12 11c45 0 73 46 73 94zM204 307c22 14 44 29 60 50c11 15 19 33 27 50c2 4 5 6 9 6c6 0 13 -5 13 -14v-245h72c10 0 15 -7 15 -14
s-5 -15 -15 -15h-72v-8h-117v8h-167c-23 0 -31 14 -31 23c0 3 1 5 2 6c80 93 138 207 138 330c0 10 7 19 16 16c23 -7 47 -13 71 -13s48 6 71 13c14 4 23 -9 17 -16l-284 -330h167v131c0 8 1 17 8 22z" fill="currentColor"/>
</g>
</a>
<g transform="translate(0.5091, 46.1892)">
<rect x="0.0000" y="-5.8743" width="0.1600" height="11.7487" ry="0.0500" fill="currentColor"/>
</g>
<g transform="translate(-0.7409, 40.0899)">
<path transform="scale(0.0040, -0.0040)" d="M0 -56v87c0 14 11 25 25 25h50c159 0 271 136 362 270c11 17 37 -1 26 -18c-99 -144 -215 -364 -388 -364h-75z" fill="currentColor"/>
</g>
<g transform="translate(-0.7409, 52.2885)">
<path transform="scale(0.0040, -0.0040)" d="M0 56h75c173 0 289 -220 388 -364c11 -17 -15 -35 -26 -18c-91 134 -203 270 -362 270h-50c-14 0 -25 11 -25 25v87z" fill="currentColor"/>
</g>
<g transform="translate(-0.7409, 46.1892)">
<rect x="0.0000" y="-5.9193" width="0.4500" height="11.8387" ry="0.0000" fill="currentColor"/>
</g>
<g transform="translate(64.3405, 55.3485)">
<path transform="scale(0.0040, -0.0040)" d="M0 0h-16v250h16v-250zM0 0v250c97 59 224 148 224 259c0 57 -15 112 -40 163c-3 16 10 27 23 27c7 0 15 -3 20 -11c25 -56 40 -117 40 -179c0 -203 -267 -306 -267 -509z" fill="currentColor"/>
</g>
<g transform="translate(64.2755, 52.0135)">
<rect x="-0.0650" y="0.1861" width="0.1300" height="3.1889" ry="0.0400" fill="currentColor"/>
</g>
<a style="color:inherit;" xlink:href="textedit://C:/Users/jwloy/Documents/GitHub/sf005/public/pieces/sf005/notation/InteractiveLoopingLine001.ly:291:73:74">
<g transform="translate(64.2105, 52.0135)">
<path transform="scale(0.0040, -0.0040)" d="M218 136c55 0 108 -28 108 -89c0 -71 -55 -121 -102 -149c-35 -21 -75 -34 -116 -34c-55 0 -108 28 -108 89c0 71 55 121 102 149c35 21 75 34 116 34z" fill="currentColor"/>
</g>
</a>
<g transform="translate(52.4890, 52.0135)">
<rect x="-0.0650" y="0.1861" width="0.1300" height="3.0039" ry="0.0400" fill="currentColor"/>
</g>
<a style="color:inherit;" xlink:href="textedit://C:/Users/jwloy/Documents/GitHub/sf005/public/pieces/sf005/notation/InteractiveLoopingLine001.ly:291:68:69">
<g transform="translate(52.4240, 52.0135)">
<path transform="scale(0.0040, -0.0040)" d="M218 136c55 0 108 -28 108 -89c0 -71 -55 -121 -102 -149c-35 -21 -75 -34 -116 -34c-55 0 -108 28 -108 89c0 71 55 121 102 149c35 21 75 34 116 34z" fill="currentColor"/>
</g>
</a>
<g transform="translate(46.5437, 52.0135)">
<rect x="-0.0650" y="0.1861" width="0.1300" height="3.0039" ry="0.0400" fill="currentColor"/>
</g>
<a style="color:inherit;" xlink:href="textedit://C:/Users/jwloy/Documents/GitHub/sf005/public/pieces/sf005/notation/InteractiveLoopingLine001.ly:291:62:63">
<g transform="translate(46.4787, 52.0135)">
<path transform="scale(0.0040, -0.0040)" d="M218 136c55 0 108 -28 108 -89c0 -71 -55 -121 -102 -149c-35 -21 -75 -34 -116 -34c-55 0 -108 28 -108 89c0 71 55 121 102 149c35 21 75 34 116 34z" fill="currentColor"/>
</g>
</a>
</svg>
